#N canvas 1358 0 1600 827 10;
#X obj 293 316 == 0;
#X obj 331 316 == 1;
#X obj 372 316 == 2;
#X obj 271 403 spigot;
#X obj 317 404 spigot;
#X obj 362 405 spigot;
#X floatatom 462 407 5 0 0 0 - - -;
#X floatatom 302 342 5 0 0 0 - - -;
#X floatatom 346 343 5 0 0 0 - - -;
#X floatatom 391 344 5 0 0 0 - - -;
#X obj 120 247 inlet;
#X obj 313 230 inlet;
#X obj 514 231 inlet;
#X obj 521 278 bng 15 250 50 0 empty empty empty 17 7 0 10 -262144
-1 -1;
#X obj 252 510 outlet;
#X obj 319 510 outlet;
#X obj 377 509 outlet;
#X connect 0 0 3 1;
#X connect 0 0 7 0;
#X connect 1 0 4 1;
#X connect 1 0 8 0;
#X connect 2 0 5 1;
#X connect 2 0 9 0;
#X connect 3 0 14 0;
#X connect 4 0 15 0;
#X connect 5 0 16 0;
#X connect 6 0 14 0;
#X connect 6 0 15 0;
#X connect 6 0 16 0;
#X connect 10 0 5 0;
#X connect 10 0 4 0;
#X connect 10 0 3 0;
#X connect 11 0 0 0;
#X connect 11 0 1 0;
#X connect 11 0 2 0;
#X connect 12 0 13 0;
#X connect 13 0 6 0;
