#N canvas 1652 219 629 533 10;
#X obj 207 261 outlet;
#X obj 328 252 outlet;
#X obj 431 253 outlet;
#X floatatom 265 151 5 0 0 0 - - -;
#X obj 230 185 expr $f1&(!(($f2>>6)&1)) \; $f1&((($f2>>6)&1)&!(($f2>>5)&1))
\; $f1&((($f2>>6)&1)&(($f2>>5)&1));
#X obj 275 21 inlet;
#X text 274 270 command for IoMatrix;
#X text 155 277 command for mode;
#X text 410 277 command for Analog;
#X text 319 115 checks the 7th bit to see if its the first byte;
#X text 437 199 comment;
#X obj 245 112 isStartByte;
#X obj 549 195 outlet;
#X connect 4 0 0 0;
#X connect 4 1 1 0;
#X connect 4 2 2 0;
#X connect 5 0 4 1;
#X connect 5 0 11 0;
#X connect 11 0 3 0;
#X connect 11 0 4 0;
#X connect 11 1 12 0;
