#N canvas 1204 197 716 573 10;
#X obj 632 12 inlet;
#X obj 642 52 cmdDetect;
#X obj 789 67 bng 15 250 50 0 empty empty empty 17 7 0 10 -262144 -1
-1;
#X obj 570 132 == 1;
#X obj 609 132 == 1;
#X obj 651 132 == 1;
#X obj 537 199 spigot;
#X obj 513 133 bng 15 250 50 0 empty empty empty 17 7 0 10 -262144
-1 -1;
#X obj 592 198 spigot;
#X obj 651 198 spigot;
#X obj 543 236 bng 15 250 50 0 empty empty empty 17 7 0 10 -262144
-1 -1;
#X obj 598 234 bng 15 250 50 0 empty empty empty 17 7 0 10 -262144
-1 -1;
#X obj 662 235 bng 15 250 50 0 empty empty empty 17 7 0 10 -262144
-1 -1;
#X floatatom 580 165 5 0 0 0 - - -, f 5;
#X floatatom 627 166 5 0 0 0 - - -, f 5;
#X floatatom 676 161 5 0 0 0 - - -, f 5;
#X obj 521 316 outlet;
#X obj 583 318 outlet;
#X obj 641 318 outlet;
#X msg 787 272 set 0;
#X msg 840 271 set 1;
#X msg 893 270 set 2;
#X obj 724 316 outlet;
#X obj 872 431 outlet;
#X obj 719 204 spigot;
#X floatatom 776 176 5 0 0 0 - - -, f 5;
#X obj 730 230 bng 15 250 50 0 empty empty empty 17 7 0 10 -262144
-1 -1;
#X msg 946 269 set -1;
#X obj 716 132 expr if(($f1>0 || $f2>0 || $f3>0)==0 \, 1 \, 0);
#X floatatom 902 364 5 0 0 0 - - -, f 5;
#X obj 815 341 bng 15 250 50 0 empty empty empty 17 7 0 10 -262144
-1 -1;
#X text 4 8 This file is part of the TaViPaCo (Tangible Virtual Patch
Cords), f 80;
#X text 5 28 The TaViPaCo can be obtained at http://stefanofasciani.com/tavipaco.html
TaViPaCo Copyright (C) 2018 Stefano Fasciani \, University of Wollongong
in Dubai Inquiries: stefanofasciani@stefanofasciani.com, f 80;
#X text 5 68 The TaViPaCo is free software: you can redistribute it
and/or modify it under the terms of the GNU Lesser General Public License
as published by the Free Software Foundation \, either version 3 of
the License \, or (at your option) any later version., f 80;
#X text 5 118 The TaViPaCo is distributed in the hope that it will
be useful \, but WITHOUT ANY WARRANTY \; without even the implied warranty
of MERCHANTABILITY or FITNESS FOR A PARTICULAR PURPOSE. See the GNU
Less General Public License for more details., f 80;
#X text 5 161 You should have received a copy of the GNU Lesser General
Public License along with TaViPaCo. If not \, see <http://www.gnu.org/licenses/>.
, f 80;
#X text 5 191 If you use the TaViPaCo or any part of it in any system
or publication \, please acknowledge its authors by adding a reference
to this pubblication:, f 80;
#X text 5 221 S. Fasciani \, H. Rahman \, 2018 \, "Tangible Virtual
Patch Cords" in proceedings of International Computer Music Conference
2018 \, Daegu \, Korea., f 80;
#X connect 0 0 1 0;
#X connect 0 0 7 0;
#X connect 1 0 3 0;
#X connect 1 0 28 0;
#X connect 1 1 4 0;
#X connect 1 1 28 1;
#X connect 1 2 5 0;
#X connect 1 2 28 2;
#X connect 1 3 2 0;
#X connect 3 0 6 1;
#X connect 3 0 13 0;
#X connect 4 0 8 1;
#X connect 4 0 14 0;
#X connect 5 0 9 1;
#X connect 5 0 15 0;
#X connect 6 0 10 0;
#X connect 7 0 6 0;
#X connect 7 0 8 0;
#X connect 7 0 9 0;
#X connect 7 0 24 0;
#X connect 8 0 11 0;
#X connect 9 0 12 0;
#X connect 10 0 16 0;
#X connect 10 0 19 0;
#X connect 11 0 17 0;
#X connect 11 0 20 0;
#X connect 12 0 18 0;
#X connect 12 0 21 0;
#X connect 19 0 29 0;
#X connect 19 0 30 0;
#X connect 20 0 29 0;
#X connect 20 0 30 0;
#X connect 21 0 29 0;
#X connect 21 0 30 0;
#X connect 24 0 26 0;
#X connect 26 0 22 0;
#X connect 26 0 27 0;
#X connect 27 0 29 0;
#X connect 28 0 25 0;
#X connect 28 0 24 1;
#X connect 29 0 23 0;
#X connect 30 0 29 0;
