#N canvas -828 133 336 695 10;
#X floatatom 131 274 5 0 0 0 - - -, f 5;
#X obj 29 156 bng 15 250 50 0 empty empty empty 17 7 0 10 -262144 -1
-1;
#X floatatom 137 147 5 0 0 0 - - -, f 5;
#X obj 95 94 bng 15 250 50 0 empty empty empty 17 7 0 10 -262144 -1
-1;
#X obj 42 34 inlet;
#X obj 133 31 inlet;
#X obj 254 33 inlet;
#X obj 98 439 outlet;
#X obj 268 479 outlet;
#X obj 196 329 ==;
#X obj 164 371 spigot;
#X floatatom 272 83 5 0 0 0 - - -, f 5;
#X floatatom 234 360 5 0 0 0 - - -, f 5;
#X msg 81 147 reset;
#X obj 122 225 markex/counter;
#X obj 228 400 t b;
#X connect 0 0 9 0;
#X connect 0 0 7 0;
#X connect 1 0 14 0;
#X connect 2 0 14 2;
#X connect 3 0 2 0;
#X connect 3 0 13 0;
#X connect 4 0 1 0;
#X connect 5 0 3 0;
#X connect 6 0 9 1;
#X connect 6 0 11 0;
#X connect 9 0 10 1;
#X connect 9 0 12 0;
#X connect 9 0 15 0;
#X connect 10 0 8 0;
#X connect 11 0 14 3;
#X connect 13 0 14 0;
#X connect 14 0 0 0;
#X connect 15 0 10 0;
