#N canvas 4 2 336 695 10;
#X obj 122 225 counter;
#X floatatom 131 274 5 0 0 0 - - -;
#X obj 29 156 bng 15 250 50 0 empty empty empty 17 7 0 10 -262144 -1
-1;
#X floatatom 94 151 5 0 0 0 - - -;
#X floatatom 135 167 5 0 0 0 - - -;
#X obj 95 94 bng 15 250 50 0 empty empty empty 17 7 0 10 -262144 -1
-1;
#X obj 227 399 bng 15 250 50 0 empty empty empty 17 7 0 10 -262144
-1 -1;
#X obj 42 34 inlet;
#X obj 133 31 inlet;
#X obj 189 33 inlet;
#X obj 254 33 inlet;
#X obj 98 439 outlet;
#X obj 270 432 outlet;
#X obj 196 329 ==;
#X obj 164 371 spigot;
#X floatatom 199 84 5 0 0 0 - - -;
#X floatatom 272 83 5 0 0 0 - - -;
#X floatatom 234 360 5 0 0 0 - - -;
#X connect 0 0 1 0;
#X connect 1 0 13 0;
#X connect 1 0 11 0;
#X connect 2 0 0 0;
#X connect 2 0 14 0;
#X connect 3 0 0 2;
#X connect 4 0 0 3;
#X connect 5 0 3 0;
#X connect 5 0 4 0;
#X connect 6 0 12 0;
#X connect 7 0 2 0;
#X connect 8 0 5 0;
#X connect 9 0 0 4;
#X connect 9 0 15 0;
#X connect 10 0 13 1;
#X connect 10 0 16 0;
#X connect 13 0 14 1;
#X connect 13 0 17 0;
#X connect 14 0 6 0;
