#N canvas 782 1 558 698 10;
#X floatatom 74 -143 5 0 0 0 - - -;
#X obj 209 -65 isStartByte;
#X floatatom 210 -26 5 0 0 0 - - -;
#X obj 272 -22 bng 15 250 50 0 empty empty empty 17 7 0 10 -262144
-1 -1;
#X floatatom 338 -114 5 0 0 0 - - -;
#X obj 295 -153 cmdLen;
#X obj 212 131 cmdBuff;
#X floatatom 186 168 5 0 0 0 - - -;
#X floatatom 223 167 5 0 0 0 - - -;
#X floatatom 263 170 5 0 0 0 - - -;
#X obj 323 121 bng 15 250 50 0 empty empty empty 17 7 0 10 -262144
-1 -1;
#X obj 370 -70 bng 15 250 50 0 empty empty empty 17 7 0 10 -262144
-1 -1;
#X obj 233 36 dataCounterCtrl;
#X floatatom 273 67 5 0 0 0 - - -;
#X obj 185 258 f;
#X obj 230 257 f;
#X obj 274 257 f;
#X floatatom 183 289 5 0 0 0 - - -;
#X floatatom 231 290 5 0 0 0 - - -;
#X floatatom 276 290 5 0 0 0 - - -;
#X obj 395 147 bng 15 250 50 0 empty empty empty 17 7 0 10 -262144
-1 -1;
#X obj 222 321 pack f f f;
#X obj 196 374 bng 15 250 50 0 empty empty empty 17 7 0 10 -262144
-1 -1;
#X obj 14 -176 inlet;
#X obj 147 352 outlet;
#X obj 298 202 t b b b;
#X obj 52 -36 t f f f f;
#X connect 0 0 1 0;
#X connect 0 0 5 0;
#X connect 0 0 6 0;
#X connect 0 0 12 0;
#X connect 0 0 26 0;
#X connect 1 0 2 0;
#X connect 1 1 3 0;
#X connect 3 0 12 1;
#X connect 4 0 11 0;
#X connect 4 0 12 2;
#X connect 5 0 4 0;
#X connect 6 0 7 0;
#X connect 6 1 8 0;
#X connect 6 2 9 0;
#X connect 7 0 14 1;
#X connect 8 0 15 1;
#X connect 9 0 16 1;
#X connect 10 0 6 2;
#X connect 12 0 13 0;
#X connect 12 0 6 1;
#X connect 12 1 20 0;
#X connect 14 0 17 0;
#X connect 15 0 18 0;
#X connect 16 0 19 0;
#X connect 17 0 21 0;
#X connect 18 0 21 1;
#X connect 19 0 21 2;
#X connect 20 0 25 0;
#X connect 21 0 22 0;
#X connect 21 0 24 0;
#X connect 23 0 0 0;
#X connect 25 0 14 0;
#X connect 25 1 15 0;
#X connect 25 2 16 0;
