#N canvas 1358 0 1600 827 10;
#X floatatom 143 120 5 0 0 0 - - -;
#X obj 110 85 expr (($f1>>7)&1);
#X obj 164 160 == 1;
#X obj 132 199 spigot;
#X obj 152 274 bng 15 250 50 0 empty empty empty 17 7 0 10 -262144
-1 -1;
#X obj 39 26 inlet;
#X obj 93 291 outlet;
#X obj 46 73 bng 15 250 50 0 empty empty empty 17 7 0 10 -262144 -1
-1;
#X floatatom 214 199 5 0 0 0 - - -;
#X obj 207 289 outlet;
#X connect 0 0 2 0;
#X connect 1 0 0 0;
#X connect 1 0 6 0;
#X connect 2 0 3 1;
#X connect 2 0 8 0;
#X connect 3 0 4 0;
#X connect 3 0 9 0;
#X connect 5 0 1 0;
#X connect 5 0 7 0;
#X connect 7 0 3 0;
