#N canvas 0 23 960 575 10;
#X obj 204 68 inlet;
#X obj 201 165 / 1023;
#X obj 359 67 inlet;
#X text 548 150 default out range 0 - 1;
#X msg 512 123 0;
#X msg 482 123 1;
#X obj 665 35 loadbang;
#X obj 383 286 -;
#X obj 200 283 *;
#X obj 208 316 +;
#X obj 208 379 outlet;
#X obj 359 98 unpack f f;
#X floatatom 350 170 0 0 0 0 - - -;
#X floatatom 422 171 0 0 0 0 - - -;
#X obj 422 199 t b f;
#X obj 350 200 f;
#X text 387 45 out min max;
#X obj 667 61 bng 15 250 50 0 empty empty empty 17 7 0 10 -262144 -1
-1;
#X text 195 38 scales range 0 - 1023;
#X connect 0 0 1 0;
#X connect 1 0 8 0;
#X connect 2 0 11 0;
#X connect 4 0 13 0;
#X connect 5 0 12 0;
#X connect 6 0 5 0;
#X connect 6 0 4 0;
#X connect 7 0 8 1;
#X connect 8 0 9 0;
#X connect 9 0 10 0;
#X connect 11 0 13 0;
#X connect 11 1 12 0;
#X connect 12 0 15 0;
#X connect 13 0 14 0;
#X connect 14 0 15 0;
#X connect 14 1 7 1;
#X connect 14 1 9 1;
#X connect 15 0 7 0;
#X connect 17 0 4 0;
#X connect 17 0 5 0;
