#N canvas 348 55 631 779 10;
#X obj 193 246 outlet;
#X obj 249 247 outlet;
#X obj 306 245 outlet;
#X obj 293 22 unpack f f f;
#X obj 303 -35 inlet;
#X floatatom 281 51 5 0 0 0 - - -, f 5;
#X floatatom 333 70 5 0 0 0 - - -, f 5;
#X floatatom 389 47 5 0 0 0 - - -, f 5;
#X obj 242 80 expr $f1&1;
#X floatatom 176 204 5 0 0 0 - - -, f 5;
#X floatatom 225 205 5 0 0 0 - - -, f 5;
#X floatatom 271 204 5 0 0 0 - - -, f 5;
#X obj 239 171 f;
#X obj 267 171 f;
#X obj 293 172 f;
#X obj 114 130 bng 15 250 50 0 empty empty empty 17 7 0 10 -262144
-1 -1;
#X obj 122 81 bng 15 250 50 0 empty empty empty 17 7 0 10 -262144 -1
-1;
#X obj 151 75 bng 15 250 50 0 empty empty empty 17 7 0 10 -262144 -1
-1;
#X obj 173 81 bng 15 250 50 0 empty empty empty 17 7 0 10 -262144 -1
-1;
#X obj 115 29 cmdTypeDetect;
#X floatatom 195 84 5 0 0 0 - - -, f 5;
#X connect 3 0 5 0;
#X connect 3 0 8 0;
#X connect 3 0 19 0;
#X connect 3 1 6 0;
#X connect 3 1 13 1;
#X connect 3 2 7 0;
#X connect 3 2 14 1;
#X connect 4 0 3 0;
#X connect 8 0 12 1;
#X connect 12 0 9 0;
#X connect 12 0 0 0;
#X connect 13 0 10 0;
#X connect 13 0 1 0;
#X connect 14 0 11 0;
#X connect 14 0 2 0;
#X connect 15 0 12 0;
#X connect 15 0 13 0;
#X connect 15 0 14 0;
#X connect 17 0 15 0;
#X connect 19 0 16 0;
#X connect 19 1 17 0;
#X connect 19 2 18 0;
#X connect 19 4 20 0;
