#N canvas 946 290 450 392 10;
#X obj 210 269 outlet;
#X obj 269 85 unpack f f f;
#X obj 280 151 expr $f1&1;
#X obj 363 32 inlet;
#X obj 157 176 bng 15 250 50 0 empty empty empty 17 7 0 10 -262144
-1 -1;
#X obj 202 199 f;
#X obj 128 149 bng 15 250 50 0 empty empty empty 17 7 0 10 -262144
-1 -1;
#X obj 155 149 bng 15 250 50 0 empty empty empty 17 7 0 10 -262144
-1 -1;
#X obj 181 149 bng 15 250 50 0 empty empty empty 17 7 0 10 -262144
-1 -1;
#X obj 132 122 cmdTypeDetect;
#X connect 1 0 2 0;
#X connect 1 0 9 0;
#X connect 2 0 5 1;
#X connect 3 0 1 0;
#X connect 4 0 5 0;
#X connect 5 0 0 0;
#X connect 6 0 4 0;
#X connect 9 0 6 0;
#X connect 9 1 7 0;
#X connect 9 2 8 0;
