#N canvas 272 352 709 528 10;
#X obj 59 78 inlet;
#X obj 234 77 inlet~;
#X obj 334 77 inlet~;
#X obj 149 78 inlet;
#X text 29 53 select 0 or 1;
#X text 219 53 input 0;
#X text 319 53 input 1;
#X obj 186 403 outlet~;
#X obj 186 369 +~;
#X text 128 52 default 100;
#X text 129 33 ramp time ms;
#X obj 245 303 *~;
#X obj 305 303 *~;
#X obj 346 242 line~;
#X obj 59 127 select 0 1;
#X msg 205 166 0;
#X msg 161 166 1;
#X obj 446 242 line~;
#X obj 346 213 list append;
#X obj 446 213 list append;
#X msg 251 166 0;
#X msg 295 166 1;
#X obj 504 56 loadbang;
#X msg 504 78 100;
#X connect 0 0 14 0;
#X connect 1 0 11 0;
#X connect 2 0 12 0;
#X connect 3 0 18 1;
#X connect 3 0 19 1;
#X connect 8 0 7 0;
#X connect 11 0 8 0;
#X connect 12 0 8 1;
#X connect 13 0 11 1;
#X connect 14 0 16 0;
#X connect 14 0 15 0;
#X connect 14 1 20 0;
#X connect 14 1 21 0;
#X connect 15 0 19 0;
#X connect 16 0 18 0;
#X connect 17 0 12 1;
#X connect 18 0 13 0;
#X connect 19 0 17 0;
#X connect 20 0 18 0;
#X connect 21 0 19 0;
#X connect 22 0 23 0;
#X connect 23 0 19 1;
#X connect 23 0 18 1;
