#N canvas 100 23 1712 992 10;
#X obj 188 88 inlet;
#X obj 298 88 inlet;
#X obj 429 88 inlet~;
#X text 16 62 INTERFACEOUTLET \, OPEN/CLOSE \, MODE;
#X text 274 62 FADE TIME MS;
#X obj 479 88 inlet~;
#X obj 529 88 inlet~;
#X obj 579 88 inlet~;
#X obj 629 88 inlet~;
#X obj 679 88 inlet~;
#X obj 729 88 inlet~;
#X obj 779 88 inlet~;
#X obj 829 88 inlet~;
#X obj 879 88 inlet~;
#X obj 929 88 inlet~;
#X obj 979 88 inlet~;
#X obj 1029 88 inlet~;
#X obj 1079 88 inlet~;
#X obj 1129 88 inlet~;
#X obj 1179 88 inlet~;
#X obj 1229 88 inlet~;
#X obj 1279 88 inlet~;
#X obj 1329 88 inlet~;
#X obj 1379 88 inlet~;
#X obj 1429 88 inlet~;
#X obj 1479 88 inlet~;
#X obj 188 181 list split 2;
#X obj 326 278 route 0 1 2 3 4 5 6 7 8 9 10 11 12 13 14 15 16 17 18
19 20 21, f 122;
#X obj 160 956 outlet~;
#X text 402 62 INTERFACEOUTLET;
#X text 144 984 INTERFACEINLET;
#X obj 160 877 sigSelectRamp;
#X obj 131 273 change;
#X obj 494 657 TaViPaCoADD, f 62;
#X obj 851 714 TaViPaCoMUL, f 62;
#X obj 44 211 loadbang;
#X msg 92 245 -1;
#X obj 1301 511 TaViPaCoFio;
#X obj 417 397 TaViPaCoFio;
#X obj 497 397 TaViPaCoFio;
#X obj 577 397 TaViPaCoFio;
#X obj 657 397 TaViPaCoFio;
#X obj 737 397 TaViPaCoFio;
#X obj 817 397 TaViPaCoFio;
#X obj 897 397 TaViPaCoFio;
#X obj 977 397 TaViPaCoFio;
#X obj 1057 397 TaViPaCoFio;
#X obj 1137 397 TaViPaCoFio;
#X obj 1217 397 TaViPaCoFio;
#X obj 581 511 TaViPaCoFio;
#X obj 661 511 TaViPaCoFio;
#X obj 741 511 TaViPaCoFio;
#X obj 821 511 TaViPaCoFio;
#X obj 901 511 TaViPaCoFio;
#X obj 981 511 TaViPaCoFio;
#X obj 1061 511 TaViPaCoFio;
#X obj 1141 511 TaViPaCoFio;
#X obj 1221 511 TaViPaCoFio;
#X obj 1381 511 TaViPaCoFio;
#X obj 975 892 pack 0 0 0 0 0 0 0 0 0 0 0 0 0 0 0 0 0 0 0 0 0 0, f
95;
#X obj 975 925 listsum;
#X obj 975 958 == 22;
#X obj 267 839 sigSelectRamp;
#X msg 59 289 0;
#X obj 342 778 sig~ 0;
#X obj 1568 805 t b f;
#X obj 1527 806 t b f;
#X obj 1485 805 t b f;
#X obj 1441 806 t b f;
#X obj 1398 805 t b f;
#X obj 1357 806 t b f;
#X obj 1315 805 t b f;
#X obj 1271 806 t b f;
#X obj 1228 805 t b f;
#X obj 1187 806 t b f;
#X obj 1145 805 t b f;
#X obj 1438 755 t b f;
#X obj 1397 756 t b f;
#X obj 1355 755 t b f;
#X obj 1311 756 t b f;
#X obj 1268 755 t b f;
#X obj 1227 756 t b f;
#X obj 1185 755 t b f;
#X obj 1141 756 t b f;
#X obj 1098 755 t b f;
#X obj 1057 756 t b f;
#X connect 0 0 26 0;
#X connect 1 0 31 1;
#X connect 1 0 37 1;
#X connect 1 0 38 1;
#X connect 1 0 39 1;
#X connect 1 0 40 1;
#X connect 1 0 41 1;
#X connect 1 0 42 1;
#X connect 1 0 43 1;
#X connect 1 0 44 1;
#X connect 1 0 45 1;
#X connect 1 0 46 1;
#X connect 1 0 47 1;
#X connect 1 0 48 1;
#X connect 1 0 49 1;
#X connect 1 0 50 1;
#X connect 1 0 51 1;
#X connect 1 0 52 1;
#X connect 1 0 53 1;
#X connect 1 0 54 1;
#X connect 1 0 55 1;
#X connect 1 0 56 1;
#X connect 1 0 57 1;
#X connect 1 0 58 1;
#X connect 1 0 62 1;
#X connect 2 0 38 3;
#X connect 5 0 39 3;
#X connect 6 0 40 3;
#X connect 7 0 41 3;
#X connect 8 0 42 3;
#X connect 9 0 43 3;
#X connect 10 0 44 3;
#X connect 11 0 45 3;
#X connect 12 0 46 3;
#X connect 13 0 47 3;
#X connect 14 0 48 3;
#X connect 15 0 49 3;
#X connect 16 0 50 3;
#X connect 17 0 51 3;
#X connect 18 0 52 3;
#X connect 19 0 53 3;
#X connect 20 0 54 3;
#X connect 21 0 55 3;
#X connect 22 0 56 3;
#X connect 23 0 57 3;
#X connect 24 0 37 3;
#X connect 25 0 58 3;
#X connect 26 0 27 0;
#X connect 26 1 32 0;
#X connect 26 1 37 0;
#X connect 26 1 38 0;
#X connect 26 1 39 0;
#X connect 26 1 40 0;
#X connect 26 1 41 0;
#X connect 26 1 42 0;
#X connect 26 1 43 0;
#X connect 26 1 44 0;
#X connect 26 1 45 0;
#X connect 26 1 46 0;
#X connect 26 1 47 0;
#X connect 26 1 48 0;
#X connect 26 1 49 0;
#X connect 26 1 50 0;
#X connect 26 1 51 0;
#X connect 26 1 52 0;
#X connect 26 1 53 0;
#X connect 26 1 54 0;
#X connect 26 1 55 0;
#X connect 26 1 56 0;
#X connect 26 1 57 0;
#X connect 26 1 58 0;
#X connect 27 0 38 2;
#X connect 27 1 39 2;
#X connect 27 2 40 2;
#X connect 27 3 41 2;
#X connect 27 4 42 2;
#X connect 27 5 43 2;
#X connect 27 6 44 2;
#X connect 27 7 45 2;
#X connect 27 8 46 2;
#X connect 27 9 47 2;
#X connect 27 10 48 2;
#X connect 27 11 49 2;
#X connect 27 12 50 2;
#X connect 27 13 51 2;
#X connect 27 14 52 2;
#X connect 27 15 53 2;
#X connect 27 16 54 2;
#X connect 27 17 55 2;
#X connect 27 18 56 2;
#X connect 27 19 57 2;
#X connect 27 20 37 2;
#X connect 27 21 58 2;
#X connect 31 0 28 0;
#X connect 32 0 31 0;
#X connect 33 0 31 2;
#X connect 34 0 62 2;
#X connect 35 0 36 0;
#X connect 35 0 63 0;
#X connect 36 0 32 0;
#X connect 37 0 33 20;
#X connect 37 0 34 20;
#X connect 37 1 66 0;
#X connect 38 0 33 0;
#X connect 38 0 34 0;
#X connect 38 1 59 0;
#X connect 39 0 33 1;
#X connect 39 0 34 1;
#X connect 39 1 85 0;
#X connect 40 0 33 2;
#X connect 40 0 34 2;
#X connect 40 1 84 0;
#X connect 41 0 33 3;
#X connect 41 0 34 3;
#X connect 41 1 83 0;
#X connect 42 0 33 4;
#X connect 42 0 34 4;
#X connect 42 1 82 0;
#X connect 43 0 33 5;
#X connect 43 0 34 5;
#X connect 43 1 81 0;
#X connect 44 0 33 6;
#X connect 44 0 34 6;
#X connect 44 1 80 0;
#X connect 45 0 33 7;
#X connect 45 0 34 7;
#X connect 45 1 79 0;
#X connect 46 0 33 8;
#X connect 46 0 34 8;
#X connect 46 1 78 0;
#X connect 47 0 33 9;
#X connect 47 0 34 9;
#X connect 47 1 77 0;
#X connect 48 0 33 10;
#X connect 48 0 34 10;
#X connect 48 1 76 0;
#X connect 49 0 33 11;
#X connect 49 0 34 11;
#X connect 49 1 75 0;
#X connect 50 0 33 12;
#X connect 50 0 34 12;
#X connect 50 1 74 0;
#X connect 51 0 33 13;
#X connect 51 0 34 13;
#X connect 51 1 73 0;
#X connect 52 0 33 14;
#X connect 52 0 34 14;
#X connect 52 1 72 0;
#X connect 53 0 33 15;
#X connect 53 0 34 15;
#X connect 53 1 71 0;
#X connect 54 0 33 16;
#X connect 54 0 34 16;
#X connect 54 1 70 0;
#X connect 55 0 33 17;
#X connect 55 0 34 17;
#X connect 55 1 69 0;
#X connect 56 0 33 18;
#X connect 56 0 34 18;
#X connect 56 1 68 0;
#X connect 57 0 33 19;
#X connect 57 0 34 19;
#X connect 57 1 67 0;
#X connect 58 0 33 21;
#X connect 58 0 34 21;
#X connect 58 1 65 0;
#X connect 59 0 60 0;
#X connect 60 0 61 0;
#X connect 61 0 62 0;
#X connect 62 0 31 3;
#X connect 63 0 31 0;
#X connect 63 0 62 0;
#X connect 64 0 62 3;
#X connect 65 0 59 0;
#X connect 65 1 59 21;
#X connect 66 0 59 0;
#X connect 66 1 59 20;
#X connect 67 0 59 0;
#X connect 67 1 59 19;
#X connect 68 0 59 0;
#X connect 68 1 59 18;
#X connect 69 0 59 0;
#X connect 69 1 59 17;
#X connect 70 0 59 0;
#X connect 70 1 59 16;
#X connect 71 0 59 0;
#X connect 71 1 59 15;
#X connect 72 0 59 0;
#X connect 72 1 59 14;
#X connect 73 0 59 0;
#X connect 73 1 59 13;
#X connect 74 0 59 0;
#X connect 74 1 59 12;
#X connect 75 0 59 0;
#X connect 75 1 59 11;
#X connect 76 0 59 0;
#X connect 76 1 59 10;
#X connect 77 0 59 0;
#X connect 77 1 59 9;
#X connect 78 0 59 0;
#X connect 78 1 59 8;
#X connect 79 0 59 0;
#X connect 79 1 59 7;
#X connect 80 0 59 0;
#X connect 80 1 59 6;
#X connect 81 0 59 0;
#X connect 81 1 59 5;
#X connect 82 0 59 0;
#X connect 82 1 59 4;
#X connect 83 0 59 0;
#X connect 83 1 59 3;
#X connect 84 0 59 0;
#X connect 84 1 59 2;
#X connect 85 0 59 0;
#X connect 85 1 59 1;
