#N canvas 46 70 1637 938 10;
#X obj 110 131 tgl 15 0 empty empty empty 17 7 0 10 -262144 -1 -1 1
1;
#X msg 110 158 verbose \$1;
#X msg 190 158 fadetime \$1 \$2;
#X msg 393 158 ifenable \$1;
#X msg 479 158 dumpserialports;
#X msg 590 158 selectserial \$1;
#X msg 704 158 pollinginterval \$1;
#X msg 590 158 selectserial \$1;
#X obj 110 455 bng 15 250 50 0 empty empty empty 17 7 0 10 -262144
-1 -1;
#X text 131 455 Serial RX;
#X floatatom 704 131 5 0 0 0 - - -, f 5;
#X floatatom 590 131 5 0 0 0 - - -, f 5;
#X obj 393 131 tgl 15 0 empty empty empty 17 7 0 10 -262144 -1 -1 1
1;
#X msg 190 131 10 1000;
#X obj 110 395 TaViPaCoPd, f 102;
#X msg 295 158 gain \$1 \$2;
#X msg 295 131 0 1;
#X floatatom 834 131 5 0 0 0 - - -, f 5;
#X msg 834 158 blocksize \$1;
#X text 659 16 COMMANDS // verbose 1/0 // fadetime min max // gain
min max // ifenable 1/0 (after serial open) enable interface \, upon
sending 1 a full status update is sent // dumpserialport (shows serial
ports) // selectserial (integer starting from 0 identifying one of
the port in the dumped list) // pollinginterval INT (default 10 ms)
// DSP block size \, same value as in audio settings (this wont change
the block size);
#X obj 570 276 osc~ 200;
#X obj 630 276 osc~ 300;
#X obj 690 276 osc~ 400;
#X obj 750 276 osc~ 500;
#X obj 810 276 osc~ 600;
#X obj 870 276 osc~ 700;
#X obj 930 276 osc~ 800;
#X obj 990 276 osc~ 900;
#X obj 1050 276 osc~ 1000;
#X obj 1115 276 osc~ 1100;
#X obj 1180 276 osc~ 1200;
#X obj 1246 276 osc~ 1300;
#X obj 1311 276 osc~ 1400;
#X obj 1376 276 osc~ 1500;
#X obj 1441 276 osc~ 1600;
#X obj 1506 276 osc~ 1700;
#X obj 1571 276 osc~ 1800;
#X obj 1635 276 osc~ 1900;
#X obj 1700 276 osc~ 2000;
#X obj 1765 276 osc~ 2100;
#X obj 510 276 osc~ 100;
#X obj 368 569 dac~ 1 2;
#X obj 1830 276 osc~ 2200;
#X connect 0 0 1 0;
#X connect 1 0 14 0;
#X connect 2 0 14 0;
#X connect 3 0 14 0;
#X connect 4 0 14 0;
#X connect 5 0 14 0;
#X connect 6 0 14 0;
#X connect 10 0 6 0;
#X connect 11 0 5 0;
#X connect 12 0 3 0;
#X connect 13 0 2 0;
#X connect 14 0 8 0;
#X connect 14 1 41 0;
#X connect 14 2 41 1;
#X connect 14 3 41 0;
#X connect 14 4 41 1;
#X connect 14 5 41 0;
#X connect 14 6 41 1;
#X connect 14 7 41 0;
#X connect 14 8 41 1;
#X connect 14 9 41 0;
#X connect 14 10 41 1;
#X connect 14 11 41 0;
#X connect 14 12 41 1;
#X connect 14 13 41 0;
#X connect 14 14 41 1;
#X connect 14 15 41 0;
#X connect 14 16 41 1;
#X connect 14 17 41 0;
#X connect 14 18 41 1;
#X connect 14 19 41 0;
#X connect 14 20 41 1;
#X connect 14 21 41 0;
#X connect 14 22 41 1;
#X connect 15 0 14 0;
#X connect 16 0 15 0;
#X connect 17 0 18 0;
#X connect 18 0 14 0;
#X connect 20 0 14 2;
#X connect 21 0 14 3;
#X connect 22 0 14 4;
#X connect 23 0 14 5;
#X connect 24 0 14 6;
#X connect 25 0 14 7;
#X connect 26 0 14 8;
#X connect 27 0 14 9;
#X connect 28 0 14 10;
#X connect 29 0 14 11;
#X connect 30 0 14 12;
#X connect 31 0 14 13;
#X connect 32 0 14 14;
#X connect 33 0 14 15;
#X connect 34 0 14 16;
#X connect 35 0 14 17;
#X connect 36 0 14 18;
#X connect 37 0 14 19;
#X connect 38 0 14 20;
#X connect 39 0 14 21;
#X connect 40 0 14 1;
#X connect 42 0 14 22;
