#N canvas -1395 122 733 715 10;
#X obj 218 -307 getReport;
#X obj 371 -188 AnalogUpdateCmd;
#X floatatom 408 -143 5 0 0 0 - - -, f 5;
#X floatatom 456 -148 5 0 0 0 - - -, f 5;
#X floatatom 194 -143 5 0 0 0 - - -, f 5;
#X floatatom 236 -143 5 0 0 0 - - -, f 5;
#X floatatom 275 -141 5 0 0 0 - - -, f 5;
#X obj 53 -188 ModeUpdateCmd;
#X floatatom 77 -148 5 0 0 0 - - -, f 5;
#X obj 30 13 outlet;
#X obj 194 16 outlet;
#X obj 421 16 outlet;
#X obj 203 -373 inlet;
#X obj 505 -146 bng 15 250 50 0 empty empty empty 17 7 0 10 -262144
-1 -1;
#X obj 409 -82 pack 0 f f;
#X obj 420 -41 route 0;
#X obj 199 -25 route 0;
#X obj 198 -60 pack 0 f f f;
#X obj 321 -144 bng 15 250 50 0 empty empty empty 17 7 0 10 -262144
-1 -1;
#X obj 175 -193 MatrixUpdateCmd;
#X connect 0 0 1 0;
#X connect 0 0 7 0;
#X connect 0 0 19 0;
#X connect 1 0 2 0;
#X connect 1 1 3 0;
#X connect 1 1 13 0;
#X connect 2 0 14 1;
#X connect 3 0 14 2;
#X connect 4 0 17 3;
#X connect 5 0 17 1;
#X connect 6 0 17 2;
#X connect 7 0 8 0;
#X connect 8 0 9 0;
#X connect 12 0 0 0;
#X connect 13 0 14 0;
#X connect 14 0 15 0;
#X connect 15 0 11 0;
#X connect 16 0 10 0;
#X connect 17 0 16 0;
#X connect 18 0 17 0;
#X connect 19 0 4 0;
#X connect 19 1 5 0;
#X connect 19 2 6 0;
#X connect 19 2 18 0;
