#N canvas 293 161 1334 771 10;
#X obj 91 32 inlet~;
#X obj 141 32 inlet~;
#X obj 191 32 inlet~;
#X obj 241 32 inlet~;
#X obj 291 32 inlet~;
#X obj 341 32 inlet~;
#X obj 391 32 inlet~;
#X obj 441 32 inlet~;
#X obj 491 32 inlet~;
#X obj 541 32 inlet~;
#X obj 591 32 inlet~;
#X obj 641 32 inlet~;
#X obj 691 32 inlet~;
#X obj 741 32 inlet~;
#X obj 791 32 inlet~;
#X obj 841 32 inlet~;
#X obj 891 32 inlet~;
#X obj 941 32 inlet~;
#X obj 991 32 inlet~;
#X obj 1041 32 inlet~;
#X obj 1091 32 inlet~;
#X obj 41 32 inlet~;
#X obj 41 636 outlet~;
#X obj 41 60 +~;
#X obj 41 87 +~;
#X obj 41 114 +~;
#X obj 41 141 +~;
#X obj 41 169 +~;
#X obj 41 196 +~;
#X obj 41 223 +~;
#X obj 41 250 +~;
#X obj 41 279 +~;
#X obj 41 306 +~;
#X obj 41 333 +~;
#X obj 41 360 +~;
#X obj 41 388 +~;
#X obj 41 415 +~;
#X obj 41 442 +~;
#X obj 41 469 +~;
#X obj 41 499 +~;
#X obj 41 526 +~;
#X obj 41 554 +~;
#X obj 41 581 +~;
#X obj 41 608 +~;
#X connect 0 0 23 1;
#X connect 1 0 24 1;
#X connect 2 0 25 1;
#X connect 3 0 26 1;
#X connect 4 0 27 1;
#X connect 5 0 28 1;
#X connect 6 0 29 1;
#X connect 7 0 30 1;
#X connect 8 0 31 1;
#X connect 9 0 32 1;
#X connect 10 0 33 1;
#X connect 11 0 34 1;
#X connect 12 0 35 1;
#X connect 13 0 36 1;
#X connect 14 0 37 1;
#X connect 15 0 38 1;
#X connect 16 0 39 1;
#X connect 17 0 40 1;
#X connect 18 0 41 1;
#X connect 19 0 42 1;
#X connect 20 0 43 1;
#X connect 21 0 23 0;
#X connect 23 0 24 0;
#X connect 24 0 25 0;
#X connect 25 0 26 0;
#X connect 26 0 27 0;
#X connect 27 0 28 0;
#X connect 28 0 29 0;
#X connect 29 0 30 0;
#X connect 30 0 31 0;
#X connect 31 0 32 0;
#X connect 32 0 33 0;
#X connect 33 0 34 0;
#X connect 34 0 35 0;
#X connect 35 0 36 0;
#X connect 36 0 37 0;
#X connect 37 0 38 0;
#X connect 38 0 39 0;
#X connect 39 0 40 0;
#X connect 40 0 41 0;
#X connect 41 0 42 0;
#X connect 42 0 43 0;
#X connect 43 0 22 0;
