#N canvas 893 107 1069 764 10;
#X obj 118 88 inlet;
#X obj 273 88 inlet;
#X obj 709 88 inlet~;
#X obj 259 590 outlet~;
#X obj 456 88 inlet;
#X text 16 62 mode input (0 add \, 1 mul);
#X text 209 62 fade time in millisecond;
#X text 402 62 conncetion (0 disconnected - 1 connected);
#X text 708 62 signal;
#X obj 152 158 change;
#X obj 30 106 loadbang;
#X msg 60 136 -1;
#X obj 259 543 sigSelectRamp;
#X obj 354 487 sig~ 1;
#X msg 153 479 0;
#X obj 445 450 *~;
#X obj 507 412 line~ 0;
#X obj 507 374 list append 0;
#X msg 193 479 1;
#X obj 678 214 == 1;
#X obj 645 257 spigot;
#X obj 647 318 select 0 1;
#X msg 70 163 0;
#X obj 569 257 bng 15 250 50 0 empty empty empty 17 7 0 10 -262144
-1 -1;
#X floatatom 574 309 5 0 0 0 - - -, f 5;
#X obj 508 590 outlet;
#X connect 0 0 9 0;
#X connect 1 0 12 1;
#X connect 1 0 17 1;
#X connect 2 0 15 0;
#X connect 4 0 17 0;
#X connect 4 0 24 0;
#X connect 9 0 12 0;
#X connect 9 0 19 0;
#X connect 9 0 23 0;
#X connect 9 0 25 0;
#X connect 10 0 11 0;
#X connect 10 0 14 0;
#X connect 10 0 22 0;
#X connect 11 0 9 0;
#X connect 12 0 3 0;
#X connect 13 0 12 3;
#X connect 14 0 12 0;
#X connect 14 0 25 0;
#X connect 15 0 12 2;
#X connect 16 0 15 1;
#X connect 17 0 16 0;
#X connect 18 0 12 0;
#X connect 18 0 25 0;
#X connect 19 0 20 1;
#X connect 20 0 21 0;
#X connect 21 0 18 0;
#X connect 21 1 14 0;
#X connect 22 0 20 1;
#X connect 23 0 24 0;
#X connect 24 0 20 0;
