#N canvas 15 23 1908 1035 10;
#X obj 92 33 inlet;
#X obj 1554 85 inlet~;
#X obj 1604 85 inlet~;
#X obj 1654 85 inlet~;
#X obj 1704 85 inlet~;
#X obj 1754 85 inlet~;
#X obj 1804 85 inlet~;
#X obj 1854 85 inlet~;
#X obj 1904 85 inlet~;
#X obj 1954 85 inlet~;
#X obj 2004 85 inlet~;
#X obj 2054 85 inlet~;
#X obj 2104 85 inlet~;
#X obj 2154 85 inlet~;
#X obj 2204 85 inlet~;
#X obj 2254 85 inlet~;
#X obj 2304 85 inlet~;
#X obj 2354 85 inlet~;
#X obj 2404 85 inlet~;
#X obj 2454 85 inlet~;
#X obj 2504 85 inlet~;
#X obj 2554 85 inlet~;
#X obj 2604 85 inlet~;
#X obj 86 883 outlet;
#X obj 1082 1195 outlet~;
#X obj 1132 1195 outlet~;
#X obj 1182 1195 outlet~;
#X obj 1232 1195 outlet~;
#X obj 1282 1195 outlet~;
#X obj 1332 1195 outlet~;
#X obj 1382 1195 outlet~;
#X obj 1432 1195 outlet~;
#X obj 1482 1195 outlet~;
#X obj 1532 1195 outlet~;
#X obj 1582 1195 outlet~;
#X obj 1632 1195 outlet~;
#X obj 1682 1195 outlet~;
#X obj 1732 1195 outlet~;
#X obj 1782 1195 outlet~;
#X obj 1832 1195 outlet~;
#X obj 1882 1195 outlet~;
#X obj 1932 1195 outlet~;
#X obj 1982 1195 outlet~;
#X obj 2032 1195 outlet~;
#X obj 2082 1195 outlet~;
#X obj 2132 1195 outlet~;
#X obj 92 131 tgl 15 0 empty empty empty 17 7 0 10 -262144 -1 -1 0
1;
#X obj 59 181 spigot;
#X obj 59 218 print;
#X obj 10 131 receive v_p;
#X obj 102 621 send v_p;
#X obj 86 390 bng 15 250 50 0 empty empty empty 17 7 0 10 -262144 -1
-1;
#X msg 598 208 devices;
#X floatatom 435 176 5 0 0 0 - - -, f 5;
#X msg 370 208 open \$1;
#X msg 435 208 close \$1;
#X msg 510 208 baud 57600;
#X obj 370 255 comport;
#X obj 510 175 loadbang;
#X obj 370 285 TaViPaCoParser;
#X msg 664 208 pollintervall \$1;
#X obj 744 959 route 0 1 2 3 4 5 6 7 8 9 10 11 12 13 14 15 16 17 18
19 20 21 22, f 250;
#X obj 744 1013 linscale;
#X obj 612 601 samplerate~;
#X obj 612 574 r pd-dsp-started;
#X floatatom 612 628 7 0 0 0 - - -, f 7;
#X obj 92 86 route verbose fadetime gain ifenable dumpserialports selectserial
pollinginterval blocksize, f 96;
#X floatatom 540 657 0 0 0 0 - - -;
#X floatatom 612 657 0 0 0 0 - - -;
#X obj 612 685 t b f;
#X obj 540 686 f;
#X obj 578 719 /;
#X floatatom 578 770 5 0 0 0 - - -, f 5;
#X obj 578 745 * 1000;
#X obj 102 566 list;
#X obj 215 566 list;
#X obj 339 566 list;
#X msg 145 534 MODE;
#X msg 255 534 MATRIX;
#X msg 365 534 ANALOG;
#X obj 397 501 loadbang;
#X obj 744 1041 pack f f;
#X obj 744 1065 vline~;
#X obj 540 634 * 2;
#X obj 1082 1161 *~;
#X obj 1132 1161 *~;
#X obj 1182 1161 *~;
#X obj 1232 1161 *~;
#X obj 1282 1161 *~;
#X obj 1332 1161 *~;
#X obj 1382 1161 *~;
#X obj 1432 1161 *~;
#X obj 1482 1161 *~;
#X obj 1532 1161 *~;
#X obj 1582 1161 *~;
#X obj 1632 1161 *~;
#X obj 1682 1161 *~;
#X obj 1732 1161 *~;
#X obj 1782 1161 *~;
#X obj 1832 1161 *~;
#X obj 1882 1161 *~;
#X obj 1932 1161 *~;
#X obj 1982 1161 *~;
#X obj 2032 1161 *~;
#X obj 2082 1161 *~;
#X obj 2132 1161 *~;
#X obj 814 1013 linscale;
#X obj 814 1041 pack f f;
#X obj 814 1065 vline~;
#X obj 884 1013 linscale;
#X obj 884 1041 pack f f;
#X obj 884 1065 vline~;
#X obj 954 1013 linscale;
#X obj 954 1041 pack f f;
#X obj 954 1065 vline~;
#X obj 1024 1013 linscale;
#X obj 1024 1041 pack f f;
#X obj 1024 1065 vline~;
#X obj 1094 1013 linscale;
#X obj 1094 1041 pack f f;
#X obj 1094 1065 vline~;
#X obj 1164 1013 linscale;
#X obj 1164 1041 pack f f;
#X obj 1164 1065 vline~;
#X obj 1234 1013 linscale;
#X obj 1234 1041 pack f f;
#X obj 1234 1065 vline~;
#X obj 1204 908 list;
#X msg 490 533 64;
#X obj 1301 1013 linscale;
#X obj 1301 1041 pack f f;
#X obj 1301 1065 vline~;
#X obj 1371 1013 linscale;
#X obj 1371 1041 pack f f;
#X obj 1371 1065 vline~;
#X obj 1441 1013 linscale;
#X obj 1441 1041 pack f f;
#X obj 1441 1065 vline~;
#X obj 1511 1013 linscale;
#X obj 1511 1041 pack f f;
#X obj 1511 1065 vline~;
#X obj 1581 1013 linscale;
#X obj 1581 1041 pack f f;
#X obj 1581 1065 vline~;
#X obj 1651 1013 linscale;
#X obj 1651 1041 pack f f;
#X obj 1651 1065 vline~;
#X obj 1721 1013 linscale;
#X obj 1721 1041 pack f f;
#X obj 1721 1065 vline~;
#X obj 1791 1013 linscale;
#X obj 1791 1041 pack f f;
#X obj 1791 1065 vline~;
#X obj 1858 1013 linscale;
#X obj 1858 1041 pack f f;
#X obj 1858 1065 vline~;
#X obj 1928 1013 linscale;
#X obj 1928 1041 pack f f;
#X obj 1928 1065 vline~;
#X obj 1998 1013 linscale;
#X obj 1998 1041 pack f f;
#X obj 1998 1065 vline~;
#X obj 2068 1013 linscale;
#X obj 2068 1041 pack f f;
#X obj 2068 1065 vline~;
#X obj 2138 1013 linscale;
#X obj 2138 1041 pack f f;
#X obj 2138 1065 vline~;
#X obj 2208 1013 linscale;
#X obj 2208 1041 pack f f;
#X obj 2208 1065 vline~;
#X obj 2191 929 linscale;
#X msg 2236 902 10 1000;
#X msg 1204 880 0 1;
#X obj 1204 851 loadbang;
#X obj 2236 876 loadbang;
#X obj 748 350 zl3rot-1;
#X obj 748 381 route 0 1 2 3 4 5 6 7 8 9 10 11 12 13 14 15 16 17 18
19 20 21, f 278;
#X floatatom 370 325 5 0 0 0 - - -, f 5;
#X obj 262 262 loadbang;
#X msg 262 290 0;
#X obj 748 415 zl2rot-1;
#X obj 748 445 list append;
#X obj 828 415 zl2rot-1;
#X obj 828 445 list append;
#X obj 908 415 zl2rot-1;
#X obj 908 445 list append;
#X obj 988 415 zl2rot-1;
#X obj 988 445 list append;
#X obj 1068 415 zl2rot-1;
#X obj 1068 445 list append;
#X obj 1148 415 zl2rot-1;
#X obj 1148 445 list append;
#X obj 1228 415 zl2rot-1;
#X obj 1228 445 list append;
#X obj 1308 415 zl2rot-1;
#X obj 1308 445 list append;
#X obj 1388 415 zl2rot-1;
#X obj 1388 445 list append;
#X obj 1468 415 zl2rot-1;
#X obj 1468 445 list append;
#X obj 1548 415 zl2rot-1;
#X obj 1548 445 list append;
#X obj 1628 415 zl2rot-1;
#X obj 1628 445 list append;
#X obj 1708 415 zl2rot-1;
#X obj 1708 445 list append;
#X obj 1788 415 zl2rot-1;
#X obj 1788 445 list append;
#X obj 1868 415 zl2rot-1;
#X obj 1868 445 list append;
#X obj 1948 415 zl2rot-1;
#X obj 1948 445 list append;
#X obj 2028 415 zl2rot-1;
#X obj 2028 445 list append;
#X obj 2108 415 zl2rot-1;
#X obj 2108 445 list append;
#X obj 2188 415 zl2rot-1;
#X obj 2188 445 list append;
#X obj 2268 415 zl2rot-1;
#X obj 2268 445 list append;
#X obj 2348 415 zl2rot-1;
#X obj 2348 445 list append;
#X obj 2428 415 zl2rot-1;
#X obj 2428 445 list append;
#X obj 748 489 TaViPaCoMtO, f 58;
#X obj 828 530 TaViPaCoMtO, f 58;
#X obj 908 579 TaViPaCoMtO, f 58;
#X obj 988 631 TaViPaCoMtO, f 58;
#X obj 1068 688 TaViPaCoMtO, f 58;
#X obj 1148 742 TaViPaCoMtO, f 58;
#X obj 1228 799 TaViPaCoMtO, f 58;
#X obj 1310 482 TaViPaCoMtO, f 58;
#X obj 1388 525 TaViPaCoMtO, f 58;
#X obj 1721 734 TaViPaCoMtO, f 58;
#X obj 1552 625 TaViPaCoMtO, f 58;
#X obj 1792 790 TaViPaCoMtO, f 58;
#X obj 1628 676 TaViPaCoMtO, f 58;
#X obj 2449 842 TaViPaCoMtO, f 58;
#X obj 2276 726 TaViPaCoMtO, f 58;
#X obj 1472 577 TaViPaCoMtO, f 58;
#X obj 2363 786 TaViPaCoMtO, f 58;
#X obj 2190 676 TaViPaCoMtO, f 58;
#X obj 2031 568 TaViPaCoMtO, f 58;
#X obj 2116 619 TaViPaCoMtO, f 58;
#X obj 1869 485 TaViPaCoMtO, f 58;
#X obj 1949 525 TaViPaCoMtO, f 58;
#X text 780 21 This file is part of the TaViPaCo (Tangible Virtual
Patch Cords), f 80;
#X text 781 41 The TaViPaCo can be obtained at http://stefanofasciani.com/tavipaco.html
TaViPaCo Copyright (C) 2018 Stefano Fasciani \, University of Wollongong
in Dubai Inquiries: stefanofasciani@stefanofasciani.com, f 80;
#X text 781 81 The TaViPaCo is free software: you can redistribute
it and/or modify it under the terms of the GNU Lesser General Public
License as published by the Free Software Foundation \, either version
3 of the License \, or (at your option) any later version., f 80;
#X text 781 131 The TaViPaCo is distributed in the hope that it will
be useful \, but WITHOUT ANY WARRANTY \; without even the implied warranty
of MERCHANTABILITY or FITNESS FOR A PARTICULAR PURPOSE. See the GNU
Less General Public License for more details., f 80;
#X text 781 174 You should have received a copy of the GNU Lesser General
Public License along with TaViPaCo. If not \, see <http://www.gnu.org/licenses/>.
, f 80;
#X text 781 204 If you use the TaViPaCo or any part of it in any system
or publication \, please acknowledge its authors by adding a reference
to this pubblication:, f 80;
#X text 781 234 S. Fasciani \, H. Rahman \, 2018 \, "Tangible Virtual
Patch Cords" in proceedings of International Computer Music Conference
2018 \, Daegu \, Korea., f 80;
#X connect 0 0 66 0;
#X connect 1 0 225 2;
#X connect 1 0 226 2;
#X connect 1 0 227 2;
#X connect 1 0 228 2;
#X connect 1 0 229 2;
#X connect 1 0 230 2;
#X connect 1 0 231 2;
#X connect 1 0 232 2;
#X connect 1 0 233 2;
#X connect 1 0 240 2;
#X connect 1 0 235 2;
#X connect 1 0 237 2;
#X connect 1 0 234 2;
#X connect 1 0 236 2;
#X connect 1 0 245 2;
#X connect 1 0 246 2;
#X connect 1 0 243 2;
#X connect 1 0 244 2;
#X connect 1 0 242 2;
#X connect 1 0 239 2;
#X connect 1 0 241 2;
#X connect 1 0 238 2;
#X connect 2 0 225 3;
#X connect 2 0 226 3;
#X connect 2 0 227 3;
#X connect 2 0 228 3;
#X connect 2 0 229 3;
#X connect 2 0 230 3;
#X connect 2 0 231 3;
#X connect 2 0 232 3;
#X connect 2 0 233 3;
#X connect 2 0 240 3;
#X connect 2 0 235 3;
#X connect 2 0 237 3;
#X connect 2 0 234 3;
#X connect 2 0 236 3;
#X connect 2 0 245 3;
#X connect 2 0 246 3;
#X connect 2 0 243 3;
#X connect 2 0 244 3;
#X connect 2 0 242 3;
#X connect 2 0 239 3;
#X connect 2 0 241 3;
#X connect 2 0 238 3;
#X connect 3 0 225 4;
#X connect 3 0 226 4;
#X connect 3 0 227 4;
#X connect 3 0 228 4;
#X connect 3 0 229 4;
#X connect 3 0 230 4;
#X connect 3 0 231 4;
#X connect 3 0 232 4;
#X connect 3 0 233 4;
#X connect 3 0 240 4;
#X connect 3 0 235 4;
#X connect 3 0 237 4;
#X connect 3 0 234 4;
#X connect 3 0 236 4;
#X connect 3 0 245 4;
#X connect 3 0 246 4;
#X connect 3 0 243 4;
#X connect 3 0 244 4;
#X connect 3 0 242 4;
#X connect 3 0 239 4;
#X connect 3 0 241 4;
#X connect 3 0 238 4;
#X connect 4 0 225 5;
#X connect 4 0 226 5;
#X connect 4 0 227 5;
#X connect 4 0 228 5;
#X connect 4 0 229 5;
#X connect 4 0 230 5;
#X connect 4 0 231 5;
#X connect 4 0 232 5;
#X connect 4 0 233 5;
#X connect 4 0 240 5;
#X connect 4 0 235 5;
#X connect 4 0 237 5;
#X connect 4 0 234 5;
#X connect 4 0 236 5;
#X connect 4 0 245 5;
#X connect 4 0 246 5;
#X connect 4 0 243 5;
#X connect 4 0 244 5;
#X connect 4 0 242 5;
#X connect 4 0 239 5;
#X connect 4 0 241 5;
#X connect 4 0 238 5;
#X connect 5 0 225 6;
#X connect 5 0 226 6;
#X connect 5 0 227 6;
#X connect 5 0 228 6;
#X connect 5 0 229 6;
#X connect 5 0 230 6;
#X connect 5 0 231 6;
#X connect 5 0 232 6;
#X connect 5 0 233 6;
#X connect 5 0 240 6;
#X connect 5 0 235 6;
#X connect 5 0 237 6;
#X connect 5 0 234 6;
#X connect 5 0 236 6;
#X connect 5 0 245 6;
#X connect 5 0 246 6;
#X connect 5 0 243 6;
#X connect 5 0 244 6;
#X connect 5 0 242 6;
#X connect 5 0 239 6;
#X connect 5 0 241 6;
#X connect 5 0 238 6;
#X connect 6 0 225 7;
#X connect 6 0 226 7;
#X connect 6 0 227 7;
#X connect 6 0 228 7;
#X connect 6 0 229 7;
#X connect 6 0 230 7;
#X connect 6 0 231 7;
#X connect 6 0 232 7;
#X connect 6 0 233 7;
#X connect 6 0 240 7;
#X connect 6 0 235 7;
#X connect 6 0 237 7;
#X connect 6 0 234 7;
#X connect 6 0 236 7;
#X connect 6 0 245 7;
#X connect 6 0 246 7;
#X connect 6 0 243 7;
#X connect 6 0 244 7;
#X connect 6 0 242 7;
#X connect 6 0 239 7;
#X connect 6 0 241 7;
#X connect 6 0 238 7;
#X connect 7 0 225 8;
#X connect 7 0 226 8;
#X connect 7 0 227 8;
#X connect 7 0 228 8;
#X connect 7 0 229 8;
#X connect 7 0 230 8;
#X connect 7 0 231 8;
#X connect 7 0 232 8;
#X connect 7 0 233 8;
#X connect 7 0 240 8;
#X connect 7 0 235 8;
#X connect 7 0 237 8;
#X connect 7 0 234 8;
#X connect 7 0 236 8;
#X connect 7 0 245 8;
#X connect 7 0 246 8;
#X connect 7 0 243 8;
#X connect 7 0 244 8;
#X connect 7 0 242 8;
#X connect 7 0 239 8;
#X connect 7 0 241 8;
#X connect 7 0 238 8;
#X connect 8 0 225 9;
#X connect 8 0 226 9;
#X connect 8 0 227 9;
#X connect 8 0 228 9;
#X connect 8 0 229 9;
#X connect 8 0 230 9;
#X connect 8 0 231 9;
#X connect 8 0 232 9;
#X connect 8 0 233 9;
#X connect 8 0 240 9;
#X connect 8 0 235 9;
#X connect 8 0 237 9;
#X connect 8 0 234 9;
#X connect 8 0 236 9;
#X connect 8 0 245 9;
#X connect 8 0 246 9;
#X connect 8 0 243 9;
#X connect 8 0 244 9;
#X connect 8 0 242 9;
#X connect 8 0 239 9;
#X connect 8 0 241 9;
#X connect 8 0 238 9;
#X connect 9 0 225 10;
#X connect 9 0 226 10;
#X connect 9 0 227 10;
#X connect 9 0 228 10;
#X connect 9 0 229 10;
#X connect 9 0 230 10;
#X connect 9 0 231 10;
#X connect 9 0 232 10;
#X connect 9 0 233 10;
#X connect 9 0 240 10;
#X connect 9 0 235 10;
#X connect 9 0 237 10;
#X connect 9 0 234 10;
#X connect 9 0 236 10;
#X connect 9 0 245 10;
#X connect 9 0 246 10;
#X connect 9 0 243 10;
#X connect 9 0 244 10;
#X connect 9 0 242 10;
#X connect 9 0 239 10;
#X connect 9 0 241 10;
#X connect 9 0 238 10;
#X connect 10 0 225 11;
#X connect 10 0 226 11;
#X connect 10 0 227 11;
#X connect 10 0 228 11;
#X connect 10 0 229 11;
#X connect 10 0 230 11;
#X connect 10 0 231 11;
#X connect 10 0 232 11;
#X connect 10 0 233 11;
#X connect 10 0 240 11;
#X connect 10 0 235 11;
#X connect 10 0 237 11;
#X connect 10 0 234 11;
#X connect 10 0 236 11;
#X connect 10 0 245 11;
#X connect 10 0 246 11;
#X connect 10 0 243 11;
#X connect 10 0 244 11;
#X connect 10 0 242 11;
#X connect 10 0 239 11;
#X connect 10 0 241 11;
#X connect 10 0 238 11;
#X connect 11 0 225 12;
#X connect 11 0 226 12;
#X connect 11 0 227 12;
#X connect 11 0 228 12;
#X connect 11 0 229 12;
#X connect 11 0 230 12;
#X connect 11 0 231 12;
#X connect 11 0 232 12;
#X connect 11 0 233 12;
#X connect 11 0 240 12;
#X connect 11 0 235 12;
#X connect 11 0 237 12;
#X connect 11 0 234 12;
#X connect 11 0 236 12;
#X connect 11 0 245 12;
#X connect 11 0 246 12;
#X connect 11 0 243 12;
#X connect 11 0 244 12;
#X connect 11 0 242 12;
#X connect 11 0 239 12;
#X connect 11 0 241 12;
#X connect 11 0 238 12;
#X connect 12 0 225 13;
#X connect 12 0 226 13;
#X connect 12 0 227 13;
#X connect 12 0 228 13;
#X connect 12 0 229 13;
#X connect 12 0 230 13;
#X connect 12 0 231 13;
#X connect 12 0 232 13;
#X connect 12 0 233 13;
#X connect 12 0 240 13;
#X connect 12 0 235 13;
#X connect 12 0 237 13;
#X connect 12 0 234 13;
#X connect 12 0 236 13;
#X connect 12 0 245 13;
#X connect 12 0 246 13;
#X connect 12 0 243 13;
#X connect 12 0 244 13;
#X connect 12 0 242 13;
#X connect 12 0 239 13;
#X connect 12 0 241 13;
#X connect 12 0 238 13;
#X connect 13 0 225 14;
#X connect 13 0 226 14;
#X connect 13 0 227 14;
#X connect 13 0 228 14;
#X connect 13 0 229 14;
#X connect 13 0 230 14;
#X connect 13 0 231 14;
#X connect 13 0 232 14;
#X connect 13 0 233 14;
#X connect 13 0 240 14;
#X connect 13 0 235 14;
#X connect 13 0 237 14;
#X connect 13 0 234 14;
#X connect 13 0 236 14;
#X connect 13 0 245 14;
#X connect 13 0 246 14;
#X connect 13 0 243 14;
#X connect 13 0 244 14;
#X connect 13 0 242 14;
#X connect 13 0 239 14;
#X connect 13 0 241 14;
#X connect 13 0 238 14;
#X connect 14 0 225 15;
#X connect 14 0 226 15;
#X connect 14 0 227 15;
#X connect 14 0 228 15;
#X connect 14 0 229 15;
#X connect 14 0 230 15;
#X connect 14 0 231 15;
#X connect 14 0 232 15;
#X connect 14 0 233 15;
#X connect 14 0 240 15;
#X connect 14 0 235 15;
#X connect 14 0 237 15;
#X connect 14 0 234 15;
#X connect 14 0 236 15;
#X connect 14 0 245 15;
#X connect 14 0 246 15;
#X connect 14 0 243 15;
#X connect 14 0 244 15;
#X connect 14 0 242 15;
#X connect 14 0 239 15;
#X connect 14 0 241 15;
#X connect 14 0 238 15;
#X connect 15 0 225 16;
#X connect 15 0 226 16;
#X connect 15 0 227 16;
#X connect 15 0 228 16;
#X connect 15 0 229 16;
#X connect 15 0 230 16;
#X connect 15 0 231 16;
#X connect 15 0 232 16;
#X connect 15 0 233 16;
#X connect 15 0 240 16;
#X connect 15 0 235 16;
#X connect 15 0 237 16;
#X connect 15 0 234 16;
#X connect 15 0 236 16;
#X connect 15 0 245 16;
#X connect 15 0 246 16;
#X connect 15 0 243 16;
#X connect 15 0 244 16;
#X connect 15 0 242 16;
#X connect 15 0 239 16;
#X connect 15 0 241 16;
#X connect 15 0 238 16;
#X connect 16 0 225 17;
#X connect 16 0 226 17;
#X connect 16 0 227 17;
#X connect 16 0 228 17;
#X connect 16 0 229 17;
#X connect 16 0 230 17;
#X connect 16 0 231 17;
#X connect 16 0 232 17;
#X connect 16 0 233 17;
#X connect 16 0 240 17;
#X connect 16 0 235 17;
#X connect 16 0 237 17;
#X connect 16 0 234 17;
#X connect 16 0 236 17;
#X connect 16 0 245 17;
#X connect 16 0 246 17;
#X connect 16 0 243 17;
#X connect 16 0 244 17;
#X connect 16 0 242 17;
#X connect 16 0 239 17;
#X connect 16 0 241 17;
#X connect 16 0 238 17;
#X connect 17 0 225 18;
#X connect 17 0 226 18;
#X connect 17 0 227 18;
#X connect 17 0 228 18;
#X connect 17 0 229 18;
#X connect 17 0 230 18;
#X connect 17 0 231 18;
#X connect 17 0 232 18;
#X connect 17 0 233 18;
#X connect 17 0 240 18;
#X connect 17 0 235 18;
#X connect 17 0 237 18;
#X connect 17 0 234 18;
#X connect 17 0 236 18;
#X connect 17 0 245 18;
#X connect 17 0 246 18;
#X connect 17 0 243 18;
#X connect 17 0 244 18;
#X connect 17 0 242 18;
#X connect 17 0 239 18;
#X connect 17 0 241 18;
#X connect 17 0 238 18;
#X connect 18 0 225 19;
#X connect 18 0 226 19;
#X connect 18 0 227 19;
#X connect 18 0 228 19;
#X connect 18 0 229 19;
#X connect 18 0 230 19;
#X connect 18 0 231 19;
#X connect 18 0 232 19;
#X connect 18 0 233 19;
#X connect 18 0 240 19;
#X connect 18 0 235 19;
#X connect 18 0 237 19;
#X connect 18 0 234 19;
#X connect 18 0 236 19;
#X connect 18 0 245 19;
#X connect 18 0 246 19;
#X connect 18 0 243 19;
#X connect 18 0 244 19;
#X connect 18 0 242 19;
#X connect 18 0 239 19;
#X connect 18 0 241 19;
#X connect 18 0 238 19;
#X connect 19 0 225 20;
#X connect 19 0 226 20;
#X connect 19 0 227 20;
#X connect 19 0 228 20;
#X connect 19 0 229 20;
#X connect 19 0 230 20;
#X connect 19 0 231 20;
#X connect 19 0 232 20;
#X connect 19 0 233 20;
#X connect 19 0 240 20;
#X connect 19 0 235 20;
#X connect 19 0 237 20;
#X connect 19 0 234 20;
#X connect 19 0 236 20;
#X connect 19 0 245 20;
#X connect 19 0 246 20;
#X connect 19 0 243 20;
#X connect 19 0 244 20;
#X connect 19 0 242 20;
#X connect 19 0 239 20;
#X connect 19 0 241 20;
#X connect 19 0 238 20;
#X connect 20 0 225 21;
#X connect 20 0 226 21;
#X connect 20 0 227 21;
#X connect 20 0 228 21;
#X connect 20 0 229 21;
#X connect 20 0 230 21;
#X connect 20 0 231 21;
#X connect 20 0 232 21;
#X connect 20 0 233 21;
#X connect 20 0 240 21;
#X connect 20 0 235 21;
#X connect 20 0 237 21;
#X connect 20 0 234 21;
#X connect 20 0 236 21;
#X connect 20 0 245 21;
#X connect 20 0 246 21;
#X connect 20 0 243 21;
#X connect 20 0 244 21;
#X connect 20 0 242 21;
#X connect 20 0 239 21;
#X connect 20 0 241 21;
#X connect 20 0 238 21;
#X connect 21 0 225 22;
#X connect 21 0 226 22;
#X connect 21 0 227 22;
#X connect 21 0 228 22;
#X connect 21 0 229 22;
#X connect 21 0 230 22;
#X connect 21 0 231 22;
#X connect 21 0 232 22;
#X connect 21 0 233 22;
#X connect 21 0 240 22;
#X connect 21 0 235 22;
#X connect 21 0 237 22;
#X connect 21 0 234 22;
#X connect 21 0 236 22;
#X connect 21 0 245 22;
#X connect 21 0 246 22;
#X connect 21 0 243 22;
#X connect 21 0 244 22;
#X connect 21 0 242 22;
#X connect 21 0 239 22;
#X connect 21 0 241 22;
#X connect 21 0 238 22;
#X connect 22 0 225 23;
#X connect 22 0 226 23;
#X connect 22 0 227 23;
#X connect 22 0 228 23;
#X connect 22 0 229 23;
#X connect 22 0 230 23;
#X connect 22 0 231 23;
#X connect 22 0 232 23;
#X connect 22 0 233 23;
#X connect 22 0 240 23;
#X connect 22 0 235 23;
#X connect 22 0 237 23;
#X connect 22 0 234 23;
#X connect 22 0 236 23;
#X connect 22 0 245 23;
#X connect 22 0 246 23;
#X connect 22 0 243 23;
#X connect 22 0 244 23;
#X connect 22 0 242 23;
#X connect 22 0 239 23;
#X connect 22 0 241 23;
#X connect 22 0 238 23;
#X connect 46 0 47 1;
#X connect 47 0 48 0;
#X connect 49 0 47 0;
#X connect 51 0 23 0;
#X connect 52 0 57 0;
#X connect 53 0 55 0;
#X connect 54 0 57 0;
#X connect 55 0 57 0;
#X connect 56 0 57 0;
#X connect 57 0 51 0;
#X connect 57 0 59 0;
#X connect 58 0 56 0;
#X connect 59 0 74 0;
#X connect 59 0 178 0;
#X connect 59 1 75 0;
#X connect 59 1 176 0;
#X connect 59 2 61 0;
#X connect 59 2 76 0;
#X connect 60 0 57 0;
#X connect 61 0 62 0;
#X connect 61 1 106 0;
#X connect 61 2 109 0;
#X connect 61 3 112 0;
#X connect 61 4 115 0;
#X connect 61 5 118 0;
#X connect 61 6 121 0;
#X connect 61 7 124 0;
#X connect 61 8 129 0;
#X connect 61 9 132 0;
#X connect 61 10 135 0;
#X connect 61 11 138 0;
#X connect 61 12 141 0;
#X connect 61 13 144 0;
#X connect 61 14 147 0;
#X connect 61 15 150 0;
#X connect 61 16 153 0;
#X connect 61 17 156 0;
#X connect 61 18 159 0;
#X connect 61 19 162 0;
#X connect 61 20 165 0;
#X connect 61 21 168 0;
#X connect 61 22 171 0;
#X connect 62 0 81 0;
#X connect 63 0 65 0;
#X connect 64 0 63 0;
#X connect 65 0 68 0;
#X connect 66 0 46 0;
#X connect 66 1 171 1;
#X connect 66 2 127 0;
#X connect 66 3 57 0;
#X connect 66 4 52 0;
#X connect 66 5 54 0;
#X connect 66 6 60 0;
#X connect 66 7 83 0;
#X connect 67 0 70 0;
#X connect 68 0 69 0;
#X connect 69 0 70 0;
#X connect 69 1 71 1;
#X connect 70 0 71 0;
#X connect 71 0 73 0;
#X connect 72 0 81 1;
#X connect 72 0 107 1;
#X connect 72 0 110 1;
#X connect 72 0 113 1;
#X connect 72 0 116 1;
#X connect 72 0 119 1;
#X connect 72 0 122 1;
#X connect 72 0 125 1;
#X connect 72 0 130 1;
#X connect 72 0 133 1;
#X connect 72 0 136 1;
#X connect 72 0 139 1;
#X connect 72 0 142 1;
#X connect 72 0 145 1;
#X connect 72 0 148 1;
#X connect 72 0 151 1;
#X connect 72 0 154 1;
#X connect 72 0 157 1;
#X connect 72 0 160 1;
#X connect 72 0 163 1;
#X connect 72 0 166 1;
#X connect 72 0 169 1;
#X connect 73 0 72 0;
#X connect 74 0 50 0;
#X connect 75 0 50 0;
#X connect 76 0 50 0;
#X connect 77 0 74 1;
#X connect 78 0 75 1;
#X connect 79 0 76 1;
#X connect 80 0 77 0;
#X connect 80 0 78 0;
#X connect 80 0 79 0;
#X connect 80 0 128 0;
#X connect 80 0 63 0;
#X connect 81 0 82 0;
#X connect 82 0 84 1;
#X connect 83 0 67 0;
#X connect 84 0 24 0;
#X connect 85 0 25 0;
#X connect 86 0 26 0;
#X connect 87 0 27 0;
#X connect 88 0 28 0;
#X connect 89 0 29 0;
#X connect 90 0 30 0;
#X connect 91 0 31 0;
#X connect 92 0 32 0;
#X connect 93 0 33 0;
#X connect 94 0 34 0;
#X connect 95 0 35 0;
#X connect 96 0 36 0;
#X connect 97 0 37 0;
#X connect 98 0 38 0;
#X connect 99 0 39 0;
#X connect 100 0 40 0;
#X connect 101 0 41 0;
#X connect 102 0 42 0;
#X connect 103 0 43 0;
#X connect 104 0 44 0;
#X connect 105 0 45 0;
#X connect 106 0 107 0;
#X connect 107 0 108 0;
#X connect 108 0 85 1;
#X connect 109 0 110 0;
#X connect 110 0 111 0;
#X connect 111 0 86 1;
#X connect 112 0 113 0;
#X connect 113 0 114 0;
#X connect 114 0 87 1;
#X connect 115 0 116 0;
#X connect 116 0 117 0;
#X connect 117 0 88 1;
#X connect 118 0 119 0;
#X connect 119 0 120 0;
#X connect 120 0 89 1;
#X connect 121 0 122 0;
#X connect 122 0 123 0;
#X connect 123 0 90 1;
#X connect 124 0 125 0;
#X connect 125 0 126 0;
#X connect 126 0 91 1;
#X connect 127 0 62 1;
#X connect 127 0 106 1;
#X connect 127 0 109 1;
#X connect 127 0 112 1;
#X connect 127 0 115 1;
#X connect 127 0 118 1;
#X connect 127 0 121 1;
#X connect 127 0 124 1;
#X connect 127 0 129 1;
#X connect 127 0 132 1;
#X connect 127 0 135 1;
#X connect 127 0 138 1;
#X connect 127 0 141 1;
#X connect 127 0 144 1;
#X connect 127 0 147 1;
#X connect 127 0 150 1;
#X connect 127 0 153 1;
#X connect 127 0 156 1;
#X connect 127 0 159 1;
#X connect 127 0 162 1;
#X connect 127 0 165 1;
#X connect 127 0 168 1;
#X connect 128 0 83 0;
#X connect 129 0 130 0;
#X connect 130 0 131 0;
#X connect 131 0 92 1;
#X connect 132 0 133 0;
#X connect 133 0 134 0;
#X connect 134 0 93 1;
#X connect 135 0 136 0;
#X connect 136 0 137 0;
#X connect 137 0 94 1;
#X connect 138 0 139 0;
#X connect 139 0 140 0;
#X connect 140 0 95 1;
#X connect 141 0 142 0;
#X connect 142 0 143 0;
#X connect 143 0 96 1;
#X connect 144 0 145 0;
#X connect 145 0 146 0;
#X connect 146 0 97 1;
#X connect 147 0 148 0;
#X connect 148 0 149 0;
#X connect 149 0 98 1;
#X connect 150 0 151 0;
#X connect 151 0 152 0;
#X connect 152 0 99 1;
#X connect 153 0 154 0;
#X connect 154 0 155 0;
#X connect 155 0 100 1;
#X connect 156 0 157 0;
#X connect 157 0 158 0;
#X connect 158 0 101 1;
#X connect 159 0 160 0;
#X connect 160 0 161 0;
#X connect 161 0 102 1;
#X connect 162 0 163 0;
#X connect 163 0 164 0;
#X connect 164 0 103 1;
#X connect 165 0 166 0;
#X connect 166 0 167 0;
#X connect 167 0 104 1;
#X connect 168 0 169 0;
#X connect 169 0 170 0;
#X connect 170 0 105 1;
#X connect 171 0 225 1;
#X connect 171 0 226 1;
#X connect 171 0 227 1;
#X connect 171 0 228 1;
#X connect 171 0 229 1;
#X connect 171 0 230 1;
#X connect 171 0 231 1;
#X connect 171 0 232 1;
#X connect 171 0 233 1;
#X connect 171 0 240 1;
#X connect 171 0 235 1;
#X connect 171 0 237 1;
#X connect 171 0 234 1;
#X connect 171 0 236 1;
#X connect 171 0 245 1;
#X connect 171 0 246 1;
#X connect 171 0 243 1;
#X connect 171 0 242 1;
#X connect 171 0 239 1;
#X connect 171 0 241 1;
#X connect 171 0 238 1;
#X connect 172 0 171 1;
#X connect 173 0 127 0;
#X connect 174 0 173 0;
#X connect 175 0 172 0;
#X connect 176 0 177 0;
#X connect 177 0 181 0;
#X connect 177 1 183 0;
#X connect 177 2 185 0;
#X connect 177 3 187 0;
#X connect 177 4 189 0;
#X connect 177 5 191 0;
#X connect 177 6 193 0;
#X connect 177 7 195 0;
#X connect 177 8 197 0;
#X connect 177 9 199 0;
#X connect 177 10 201 0;
#X connect 177 11 203 0;
#X connect 177 12 205 0;
#X connect 177 13 207 0;
#X connect 177 14 209 0;
#X connect 177 15 211 0;
#X connect 177 16 213 0;
#X connect 177 17 215 0;
#X connect 177 18 217 0;
#X connect 177 19 219 0;
#X connect 177 20 221 0;
#X connect 177 21 223 0;
#X connect 178 0 182 1;
#X connect 178 0 184 1;
#X connect 178 0 186 1;
#X connect 178 0 188 1;
#X connect 178 0 190 1;
#X connect 178 0 192 1;
#X connect 178 0 194 1;
#X connect 178 0 196 1;
#X connect 178 0 198 1;
#X connect 178 0 200 1;
#X connect 178 0 202 1;
#X connect 178 0 204 1;
#X connect 178 0 206 1;
#X connect 178 0 208 1;
#X connect 178 0 210 1;
#X connect 178 0 212 1;
#X connect 178 0 214 1;
#X connect 178 0 216 1;
#X connect 178 0 218 1;
#X connect 178 0 220 1;
#X connect 178 0 222 1;
#X connect 178 0 224 1;
#X connect 179 0 180 0;
#X connect 180 0 178 0;
#X connect 181 0 182 0;
#X connect 182 0 225 0;
#X connect 183 0 184 0;
#X connect 184 0 226 0;
#X connect 185 0 186 0;
#X connect 186 0 227 0;
#X connect 187 0 188 0;
#X connect 188 0 228 0;
#X connect 189 0 190 0;
#X connect 190 0 229 0;
#X connect 191 0 192 0;
#X connect 192 0 230 0;
#X connect 193 0 194 0;
#X connect 194 0 231 0;
#X connect 195 0 196 0;
#X connect 196 0 232 0;
#X connect 197 0 198 0;
#X connect 198 0 233 0;
#X connect 199 0 200 0;
#X connect 200 0 240 0;
#X connect 201 0 202 0;
#X connect 202 0 235 0;
#X connect 203 0 204 0;
#X connect 204 0 237 0;
#X connect 205 0 206 0;
#X connect 206 0 234 0;
#X connect 207 0 208 0;
#X connect 208 0 236 0;
#X connect 209 0 210 0;
#X connect 210 0 245 0;
#X connect 211 0 212 0;
#X connect 212 0 246 0;
#X connect 213 0 214 0;
#X connect 214 0 243 0;
#X connect 215 0 216 0;
#X connect 216 0 244 0;
#X connect 217 0 218 0;
#X connect 218 0 242 0;
#X connect 219 0 220 0;
#X connect 220 0 239 0;
#X connect 221 0 222 0;
#X connect 222 0 241 0;
#X connect 223 0 224 0;
#X connect 224 0 238 0;
#X connect 225 0 84 0;
#X connect 226 0 85 0;
#X connect 227 0 86 0;
#X connect 228 0 87 0;
#X connect 229 0 88 0;
#X connect 230 0 89 0;
#X connect 231 0 90 0;
#X connect 232 0 91 0;
#X connect 233 0 92 0;
#X connect 234 0 96 0;
#X connect 235 0 94 0;
#X connect 236 0 97 0;
#X connect 237 0 95 0;
#X connect 238 0 105 0;
#X connect 239 0 103 0;
#X connect 240 0 93 0;
#X connect 241 0 104 0;
#X connect 243 0 100 0;
#X connect 244 0 101 0;
#X connect 245 0 98 0;
#X connect 246 0 99 0;
