#N canvas 46 70 1637 938 10;
#X obj 110 331 tgl 15 0 empty empty empty 17 7 0 10 -262144 -1 -1 0
1;
#X msg 110 358 verbose \$1;
#X msg 190 358 fadetime \$1 \$2;
#X msg 393 358 ifenable \$1;
#X msg 479 358 dumpserialports;
#X msg 590 358 selectserial \$1;
#X msg 704 358 pollinginterval \$1;
#X msg 590 358 selectserial \$1;
#X obj 110 655 bng 15 250 50 0 empty empty empty 17 7 0 10 -262144
-1 -1;
#X text 131 655 Serial RX;
#X floatatom 704 331 5 0 0 0 - - -, f 5;
#X floatatom 590 331 5 0 0 0 - - -, f 5;
#X obj 393 331 tgl 15 0 empty empty empty 17 7 0 10 -262144 -1 -1 0
1;
#X msg 190 331 10 1000;
#X obj 110 595 TaViPaCoPd, f 102;
#X msg 295 358 gain \$1 \$2;
#X msg 295 331 0 1;
#X floatatom 834 331 5 0 0 0 - - -, f 5;
#X msg 834 358 blocksize \$1;
#X text 659 216 COMMANDS // verbose 1/0 // fadetime min max // gain
min max // ifenable 1/0 (after serial open) enable interface \, upon
sending 1 a full status update is sent // dumpserialport (shows serial
ports) // selectserial (integer starting from 0 identifying one of
the port in the dumped list) // pollinginterval INT (default 10 ms)
// DSP block size \, same value as in audio settings (this wont change
the block size);
#X obj 570 476 osc~ 200;
#X obj 630 476 osc~ 300;
#X obj 690 476 osc~ 400;
#X obj 750 476 osc~ 500;
#X obj 810 476 osc~ 600;
#X obj 870 476 osc~ 700;
#X obj 930 476 osc~ 800;
#X obj 990 476 osc~ 900;
#X obj 1050 476 osc~ 1000;
#X obj 1115 476 osc~ 1100;
#X obj 1180 476 osc~ 1200;
#X obj 1246 476 osc~ 1300;
#X obj 1311 476 osc~ 1400;
#X obj 1376 476 osc~ 1500;
#X obj 1441 476 osc~ 1600;
#X obj 1506 476 osc~ 1700;
#X obj 1571 476 osc~ 1800;
#X obj 1635 476 osc~ 1900;
#X obj 1700 476 osc~ 2000;
#X obj 1765 476 osc~ 2100;
#X obj 510 476 osc~ 100;
#X obj 368 769 dac~ 1 2;
#X obj 1830 476 osc~ 2200;
#X text 4 8 This file is part of the TaViPaCo (Tangible Virtual Patch
Cords), f 80;
#X text 5 28 The TaViPaCo can be obtained at http://stefanofasciani.com/tavipaco.html
TaViPaCo Copyright (C) 2018 Stefano Fasciani \, University of Wollongong
in Dubai Inquiries: stefanofasciani@stefanofasciani.com, f 80;
#X text 5 68 The TaViPaCo is free software: you can redistribute it
and/or modify it under the terms of the GNU Lesser General Public License
as published by the Free Software Foundation \, either version 3 of
the License \, or (at your option) any later version., f 80;
#X text 5 118 The TaViPaCo is distributed in the hope that it will
be useful \, but WITHOUT ANY WARRANTY \; without even the implied warranty
of MERCHANTABILITY or FITNESS FOR A PARTICULAR PURPOSE. See the GNU
Less General Public License for more details., f 80;
#X text 5 161 You should have received a copy of the GNU Lesser General
Public License along with TaViPaCo. If not \, see <http://www.gnu.org/licenses/>.
, f 80;
#X text 5 191 If you use the TaViPaCo or any part of it in any system
or publication \, please acknowledge its authors by adding a reference
to this pubblication:, f 80;
#X text 5 221 S. Fasciani \, H. Rahman \, 2018 \, "Tangible Virtual
Patch Cords" in proceedings of International Computer Music Conference
2018 \, Daegu \, Korea., f 80;
#X connect 0 0 1 0;
#X connect 1 0 14 0;
#X connect 2 0 14 0;
#X connect 3 0 14 0;
#X connect 4 0 14 0;
#X connect 5 0 14 0;
#X connect 6 0 14 0;
#X connect 10 0 6 0;
#X connect 11 0 5 0;
#X connect 12 0 3 0;
#X connect 13 0 2 0;
#X connect 14 0 8 0;
#X connect 14 1 41 0;
#X connect 14 2 41 1;
#X connect 14 3 41 0;
#X connect 14 4 41 1;
#X connect 14 5 41 0;
#X connect 14 6 41 1;
#X connect 14 7 41 0;
#X connect 14 8 41 1;
#X connect 14 9 41 0;
#X connect 14 10 41 1;
#X connect 14 11 41 0;
#X connect 14 12 41 1;
#X connect 14 13 41 0;
#X connect 14 14 41 1;
#X connect 14 15 41 0;
#X connect 14 16 41 1;
#X connect 14 17 41 0;
#X connect 14 18 41 1;
#X connect 14 19 41 0;
#X connect 14 20 41 1;
#X connect 14 21 41 0;
#X connect 14 22 41 1;
#X connect 15 0 14 0;
#X connect 16 0 15 0;
#X connect 17 0 18 0;
#X connect 18 0 14 0;
#X connect 20 0 14 2;
#X connect 21 0 14 3;
#X connect 22 0 14 4;
#X connect 23 0 14 5;
#X connect 24 0 14 6;
#X connect 25 0 14 7;
#X connect 26 0 14 8;
#X connect 27 0 14 9;
#X connect 28 0 14 10;
#X connect 29 0 14 11;
#X connect 30 0 14 12;
#X connect 31 0 14 13;
#X connect 32 0 14 14;
#X connect 33 0 14 15;
#X connect 34 0 14 16;
#X connect 35 0 14 17;
#X connect 36 0 14 18;
#X connect 37 0 14 19;
#X connect 38 0 14 20;
#X connect 39 0 14 21;
#X connect 40 0 14 1;
#X connect 42 0 14 22;
