#N canvas 730 152 1066 773 10;
#X obj 90 291 tgl 15 0 empty empty empty 17 7 0 10 -262144 -1 -1 0
1;
#X msg 90 318 verbose \$1;
#X msg 170 318 fadetime \$1 \$2;
#X msg 373 318 ifenable \$1;
#X msg 459 318 dumpserialports;
#X msg 570 318 selectserial \$1;
#X msg 684 318 pollinginterval \$1;
#X text 150 452 connect here the signals to the 22 interface outlets
;
#X msg 570 318 selectserial \$1;
#X text 151 495 connect here the signals from the 22 interface inlets
;
#X obj 90 545 bng 15 250 50 0 empty empty empty 17 7 0 10 -262144 -1
-1;
#X text 111 545 Serial RX;
#X floatatom 684 291 5 0 0 0 - - -, f 5;
#X floatatom 570 291 5 0 0 0 - - -, f 5;
#X obj 373 291 tgl 15 0 empty empty empty 17 7 0 10 -262144 -1 -1 0
1;
#X msg 170 291 10 1000;
#X obj 90 472 TaViPaCoPd, f 67;
#X msg 275 318 gain \$1 \$2;
#X msg 275 291 0 1;
#X floatatom 814 291 5 0 0 0 - - -, f 5;
#X msg 814 318 blocksize \$1;
#X text 533 432 COMMANDS // verbose 1/0 // fadetime min max // gain
min max // ifenable 1/0 (after serial open) enable interface \, upon
sending 1 a full status update is sent // dumpserialport (shows serial
ports) // selectserial (integer starting from 0 identifying one of
the port in the dumped list) // pollinginterval INT (default 10 ms)
// DSP block size \, same value as in audio settings (this wont change
the block size);
#X text 4 8 This file is part of the TaViPaCo (Tangible Virtual Patch
Cords), f 80;
#X text 5 28 The TaViPaCo can be obtained at http://stefanofasciani.com/tavipaco.html
TaViPaCo Copyright (C) 2018 Stefano Fasciani \, University of Wollongong
in Dubai Inquiries: stefanofasciani@stefanofasciani.com, f 80;
#X text 5 68 The TaViPaCo is free software: you can redistribute it
and/or modify it under the terms of the GNU Lesser General Public License
as published by the Free Software Foundation \, either version 3 of
the License \, or (at your option) any later version., f 80;
#X text 5 118 The TaViPaCo is distributed in the hope that it will
be useful \, but WITHOUT ANY WARRANTY \; without even the implied warranty
of MERCHANTABILITY or FITNESS FOR A PARTICULAR PURPOSE. See the GNU
Less General Public License for more details., f 80;
#X text 5 161 You should have received a copy of the GNU Lesser General
Public License along with TaViPaCo. If not \, see <http://www.gnu.org/licenses/>.
, f 80;
#X text 5 191 If you use the TaViPaCo or any part of it in any system
or publication \, please acknowledge its authors by adding a reference
to this pubblication:, f 80;
#X text 5 221 S. Fasciani \, H. Rahman \, 2018 \, "Tangible Virtual
Patch Cords" in proceedings of International Computer Music Conference
2018 \, Daegu \, Korea., f 80;
#X connect 0 0 1 0;
#X connect 1 0 16 0;
#X connect 2 0 16 0;
#X connect 3 0 16 0;
#X connect 4 0 16 0;
#X connect 5 0 16 0;
#X connect 6 0 16 0;
#X connect 12 0 6 0;
#X connect 13 0 5 0;
#X connect 14 0 3 0;
#X connect 15 0 2 0;
#X connect 16 0 10 0;
#X connect 17 0 16 0;
#X connect 18 0 17 0;
#X connect 19 0 20 0;
#X connect 20 0 16 0;
