#N canvas 100 23 1712 992 10;
#X obj 678 48 inlet;
#X obj 788 48 inlet;
#X obj 919 48 inlet~;
#X text 506 22 INTERFACEOUTLET \, OPEN/CLOSE \, MODE;
#X text 764 22 FADE TIME MS;
#X obj 969 48 inlet~;
#X obj 1019 48 inlet~;
#X obj 1069 48 inlet~;
#X obj 1119 48 inlet~;
#X obj 1169 48 inlet~;
#X obj 1219 48 inlet~;
#X obj 1269 48 inlet~;
#X obj 1319 48 inlet~;
#X obj 1369 48 inlet~;
#X obj 1419 48 inlet~;
#X obj 1469 48 inlet~;
#X obj 1519 48 inlet~;
#X obj 1569 48 inlet~;
#X obj 1619 48 inlet~;
#X obj 1669 48 inlet~;
#X obj 1719 48 inlet~;
#X obj 1769 48 inlet~;
#X obj 1819 48 inlet~;
#X obj 1869 48 inlet~;
#X obj 1919 48 inlet~;
#X obj 1969 48 inlet~;
#X obj 678 141 list split 2;
#X obj 816 238 route 0 1 2 3 4 5 6 7 8 9 10 11 12 13 14 15 16 17 18
19 20 21, f 122;
#X obj 650 916 outlet~;
#X text 892 22 INTERFACEOUTLET;
#X text 634 944 INTERFACEINLET;
#X obj 650 837 sigSelectRamp;
#X obj 621 233 change;
#X obj 984 617 TaViPaCoADD, f 62;
#X obj 1341 674 TaViPaCoMUL, f 62;
#X obj 534 171 loadbang;
#X msg 582 205 -1;
#X obj 1791 471 TaViPaCoFio;
#X obj 907 357 TaViPaCoFio;
#X obj 987 357 TaViPaCoFio;
#X obj 1067 357 TaViPaCoFio;
#X obj 1147 357 TaViPaCoFio;
#X obj 1227 357 TaViPaCoFio;
#X obj 1307 357 TaViPaCoFio;
#X obj 1387 357 TaViPaCoFio;
#X obj 1467 357 TaViPaCoFio;
#X obj 1547 357 TaViPaCoFio;
#X obj 1627 357 TaViPaCoFio;
#X obj 1707 357 TaViPaCoFio;
#X obj 1071 471 TaViPaCoFio;
#X obj 1151 471 TaViPaCoFio;
#X obj 1231 471 TaViPaCoFio;
#X obj 1311 471 TaViPaCoFio;
#X obj 1391 471 TaViPaCoFio;
#X obj 1471 471 TaViPaCoFio;
#X obj 1551 471 TaViPaCoFio;
#X obj 1631 471 TaViPaCoFio;
#X obj 1711 471 TaViPaCoFio;
#X obj 1871 471 TaViPaCoFio;
#X obj 1465 852 pack 0 0 0 0 0 0 0 0 0 0 0 0 0 0 0 0 0 0 0 0 0 0,
f 95;
#X obj 1465 885 listsum;
#X obj 1465 918 == 22;
#X obj 757 799 sigSelectRamp;
#X msg 549 249 0;
#X obj 832 738 sig~ 0;
#X obj 2058 765 t b f;
#X obj 2017 766 t b f;
#X obj 1975 765 t b f;
#X obj 1931 766 t b f;
#X obj 1888 765 t b f;
#X obj 1847 766 t b f;
#X obj 1805 765 t b f;
#X obj 1761 766 t b f;
#X obj 1718 765 t b f;
#X obj 1677 766 t b f;
#X obj 1635 765 t b f;
#X obj 1928 715 t b f;
#X obj 1887 716 t b f;
#X obj 1845 715 t b f;
#X obj 1801 716 t b f;
#X obj 1758 715 t b f;
#X obj 1717 716 t b f;
#X obj 1675 715 t b f;
#X obj 1631 716 t b f;
#X obj 1588 715 t b f;
#X obj 1547 716 t b f;
#X text 4 8 This file is part of the TaViPaCo (Tangible Virtual Patch
Cords), f 80;
#X text 5 28 The TaViPaCo can be obtained at http://stefanofasciani.com/tavipaco.html
TaViPaCo Copyright (C) 2018 Stefano Fasciani \, University of Wollongong
in Dubai Inquiries: stefanofasciani@stefanofasciani.com, f 80;
#X text 5 68 The TaViPaCo is free software: you can redistribute it
and/or modify it under the terms of the GNU Lesser General Public License
as published by the Free Software Foundation \, either version 3 of
the License \, or (at your option) any later version., f 80;
#X text 5 118 The TaViPaCo is distributed in the hope that it will
be useful \, but WITHOUT ANY WARRANTY \; without even the implied warranty
of MERCHANTABILITY or FITNESS FOR A PARTICULAR PURPOSE. See the GNU
Less General Public License for more details., f 80;
#X text 5 161 You should have received a copy of the GNU Lesser General
Public License along with TaViPaCo. If not \, see <http://www.gnu.org/licenses/>.
, f 80;
#X text 5 191 If you use the TaViPaCo or any part of it in any system
or publication \, please acknowledge its authors by adding a reference
to this pubblication:, f 80;
#X text 5 221 S. Fasciani \, H. Rahman \, 2018 \, "Tangible Virtual
Patch Cords" in proceedings of International Computer Music Conference
2018 \, Daegu \, Korea., f 80;
#X connect 0 0 26 0;
#X connect 1 0 31 1;
#X connect 1 0 37 1;
#X connect 1 0 38 1;
#X connect 1 0 39 1;
#X connect 1 0 40 1;
#X connect 1 0 41 1;
#X connect 1 0 42 1;
#X connect 1 0 43 1;
#X connect 1 0 44 1;
#X connect 1 0 45 1;
#X connect 1 0 46 1;
#X connect 1 0 47 1;
#X connect 1 0 48 1;
#X connect 1 0 49 1;
#X connect 1 0 50 1;
#X connect 1 0 51 1;
#X connect 1 0 52 1;
#X connect 1 0 53 1;
#X connect 1 0 54 1;
#X connect 1 0 55 1;
#X connect 1 0 56 1;
#X connect 1 0 57 1;
#X connect 1 0 58 1;
#X connect 1 0 62 1;
#X connect 2 0 38 3;
#X connect 5 0 39 3;
#X connect 6 0 40 3;
#X connect 7 0 41 3;
#X connect 8 0 42 3;
#X connect 9 0 43 3;
#X connect 10 0 44 3;
#X connect 11 0 45 3;
#X connect 12 0 46 3;
#X connect 13 0 47 3;
#X connect 14 0 48 3;
#X connect 15 0 49 3;
#X connect 16 0 50 3;
#X connect 17 0 51 3;
#X connect 18 0 52 3;
#X connect 19 0 53 3;
#X connect 20 0 54 3;
#X connect 21 0 55 3;
#X connect 22 0 56 3;
#X connect 23 0 57 3;
#X connect 24 0 37 3;
#X connect 25 0 58 3;
#X connect 26 0 27 0;
#X connect 26 1 32 0;
#X connect 26 1 37 0;
#X connect 26 1 38 0;
#X connect 26 1 39 0;
#X connect 26 1 40 0;
#X connect 26 1 41 0;
#X connect 26 1 42 0;
#X connect 26 1 43 0;
#X connect 26 1 44 0;
#X connect 26 1 45 0;
#X connect 26 1 46 0;
#X connect 26 1 47 0;
#X connect 26 1 48 0;
#X connect 26 1 49 0;
#X connect 26 1 50 0;
#X connect 26 1 51 0;
#X connect 26 1 52 0;
#X connect 26 1 53 0;
#X connect 26 1 54 0;
#X connect 26 1 55 0;
#X connect 26 1 56 0;
#X connect 26 1 57 0;
#X connect 26 1 58 0;
#X connect 27 0 38 2;
#X connect 27 1 39 2;
#X connect 27 2 40 2;
#X connect 27 3 41 2;
#X connect 27 4 42 2;
#X connect 27 5 43 2;
#X connect 27 6 44 2;
#X connect 27 7 45 2;
#X connect 27 8 46 2;
#X connect 27 9 47 2;
#X connect 27 10 48 2;
#X connect 27 11 49 2;
#X connect 27 12 50 2;
#X connect 27 13 51 2;
#X connect 27 14 52 2;
#X connect 27 15 53 2;
#X connect 27 16 54 2;
#X connect 27 17 55 2;
#X connect 27 18 56 2;
#X connect 27 19 57 2;
#X connect 27 20 37 2;
#X connect 27 21 58 2;
#X connect 31 0 28 0;
#X connect 32 0 31 0;
#X connect 33 0 31 2;
#X connect 34 0 62 2;
#X connect 35 0 36 0;
#X connect 35 0 63 0;
#X connect 36 0 32 0;
#X connect 37 0 33 20;
#X connect 37 0 34 20;
#X connect 37 1 66 0;
#X connect 38 0 33 0;
#X connect 38 0 34 0;
#X connect 38 1 59 0;
#X connect 39 0 33 1;
#X connect 39 0 34 1;
#X connect 39 1 85 0;
#X connect 40 0 33 2;
#X connect 40 0 34 2;
#X connect 40 1 84 0;
#X connect 41 0 33 3;
#X connect 41 0 34 3;
#X connect 41 1 83 0;
#X connect 42 0 33 4;
#X connect 42 0 34 4;
#X connect 42 1 82 0;
#X connect 43 0 33 5;
#X connect 43 0 34 5;
#X connect 43 1 81 0;
#X connect 44 0 33 6;
#X connect 44 0 34 6;
#X connect 44 1 80 0;
#X connect 45 0 33 7;
#X connect 45 0 34 7;
#X connect 45 1 79 0;
#X connect 46 0 33 8;
#X connect 46 0 34 8;
#X connect 46 1 78 0;
#X connect 47 0 33 9;
#X connect 47 0 34 9;
#X connect 47 1 77 0;
#X connect 48 0 33 10;
#X connect 48 0 34 10;
#X connect 48 1 76 0;
#X connect 49 0 33 11;
#X connect 49 0 34 11;
#X connect 49 1 75 0;
#X connect 50 0 33 12;
#X connect 50 0 34 12;
#X connect 50 1 74 0;
#X connect 51 0 33 13;
#X connect 51 0 34 13;
#X connect 51 1 73 0;
#X connect 52 0 33 14;
#X connect 52 0 34 14;
#X connect 52 1 72 0;
#X connect 53 0 33 15;
#X connect 53 0 34 15;
#X connect 53 1 71 0;
#X connect 54 0 33 16;
#X connect 54 0 34 16;
#X connect 54 1 70 0;
#X connect 55 0 33 17;
#X connect 55 0 34 17;
#X connect 55 1 69 0;
#X connect 56 0 33 18;
#X connect 56 0 34 18;
#X connect 56 1 68 0;
#X connect 57 0 33 19;
#X connect 57 0 34 19;
#X connect 57 1 67 0;
#X connect 58 0 33 21;
#X connect 58 0 34 21;
#X connect 58 1 65 0;
#X connect 59 0 60 0;
#X connect 60 0 61 0;
#X connect 61 0 62 0;
#X connect 62 0 31 3;
#X connect 63 0 31 0;
#X connect 63 0 62 0;
#X connect 64 0 62 3;
#X connect 65 0 59 0;
#X connect 65 1 59 21;
#X connect 66 0 59 0;
#X connect 66 1 59 20;
#X connect 67 0 59 0;
#X connect 67 1 59 19;
#X connect 68 0 59 0;
#X connect 68 1 59 18;
#X connect 69 0 59 0;
#X connect 69 1 59 17;
#X connect 70 0 59 0;
#X connect 70 1 59 16;
#X connect 71 0 59 0;
#X connect 71 1 59 15;
#X connect 72 0 59 0;
#X connect 72 1 59 14;
#X connect 73 0 59 0;
#X connect 73 1 59 13;
#X connect 74 0 59 0;
#X connect 74 1 59 12;
#X connect 75 0 59 0;
#X connect 75 1 59 11;
#X connect 76 0 59 0;
#X connect 76 1 59 10;
#X connect 77 0 59 0;
#X connect 77 1 59 9;
#X connect 78 0 59 0;
#X connect 78 1 59 8;
#X connect 79 0 59 0;
#X connect 79 1 59 7;
#X connect 80 0 59 0;
#X connect 80 1 59 6;
#X connect 81 0 59 0;
#X connect 81 1 59 5;
#X connect 82 0 59 0;
#X connect 82 1 59 4;
#X connect 83 0 59 0;
#X connect 83 1 59 3;
#X connect 84 0 59 0;
#X connect 84 1 59 2;
#X connect 85 0 59 0;
#X connect 85 1 59 1;
