#N canvas 0 0 1366 695 10;
#X obj 218 -307 getReport;
#X obj 371 -188 AnalogUpdateCmd;
#X floatatom 408 -143 5 0 0 0 - - -;
#X floatatom 456 -148 5 0 0 0 - - -;
#X obj 175 -193 IOMatrixUpdateCmd;
#X floatatom 203 -143 5 0 0 0 - - -;
#X floatatom 236 -143 5 0 0 0 - - -;
#X floatatom 271 -145 5 0 0 0 - - -;
#X obj 53 -188 ModeUpdateCmd;
#X floatatom 77 -148 5 0 0 0 - - -;
#X obj 409 -82 pack b f f;
#X obj 30 13 outlet;
#X obj 194 16 outlet;
#X obj 421 16 outlet;
#X obj 203 -373 inlet;
#X obj 192 -33 pack b f f f;
#X obj 68 -47 pack b f;
#X connect 0 0 1 0;
#X connect 0 0 4 0;
#X connect 0 0 8 0;
#X connect 1 0 10 0;
#X connect 1 1 2 0;
#X connect 1 2 3 0;
#X connect 2 0 10 1;
#X connect 3 0 10 2;
#X connect 4 0 15 0;
#X connect 4 1 5 0;
#X connect 4 2 6 0;
#X connect 4 3 7 0;
#X connect 5 0 15 1;
#X connect 6 0 15 2;
#X connect 7 0 15 3;
#X connect 8 0 16 0;
#X connect 8 1 9 0;
#X connect 9 0 16 1;
#X connect 10 0 13 0;
#X connect 14 0 0 0;
#X connect 15 0 12 0;
#X connect 16 0 11 0;
