#N canvas 192 177 724 492 10;
#X obj 267 216 f;
#X obj 297 216 f;
#X obj 352 178 bng 15 250 50 0 empty empty empty 17 7 0 10 -262144
-1 -1;
#X obj 218 102 inlet;
#X obj 229 327 outlet;
#X obj 223 142 unpack f f;
#X obj 268 273 pack f f;
#X connect 0 0 6 0;
#X connect 1 0 6 1;
#X connect 2 0 1 0;
#X connect 2 0 0 0;
#X connect 3 0 5 0;
#X connect 5 0 1 1;
#X connect 5 0 2 0;
#X connect 5 1 0 1;
#X connect 6 0 4 0;
