#N canvas 192 177 724 492 10;
#X obj 223 142 unpack f f f;
#X obj 269 273 pack f f f;
#X obj 327 216 f;
#X obj 267 216 f;
#X obj 297 216 f;
#X obj 381 182 bng 15 250 50 0 empty empty empty 17 7 0 10 -262144
-1 -1;
#X obj 218 102 inlet;
#X obj 229 327 outlet;
#X connect 0 0 2 1;
#X connect 0 0 5 0;
#X connect 0 1 3 1;
#X connect 0 2 4 1;
#X connect 1 0 7 0;
#X connect 2 0 1 2;
#X connect 3 0 1 0;
#X connect 4 0 1 1;
#X connect 5 0 2 0;
#X connect 5 0 4 0;
#X connect 5 0 3 0;
#X connect 6 0 0 0;
